<mxfile host="app.diagrams.net" agent="Mozilla/5.0 (Windows NT 10.0; Win64; x64) AppleWebKit/537.36 (KHTML, like Gecko) Chrome/135.0.0.0 Safari/537.36" version="26.2.9">
  <diagram id="i0Oq9vLu6JYHU1czWBwG" name="PÃ¡gina-1">
    <mxGraphModel dx="1428" dy="777" grid="1" gridSize="10" guides="1" tooltips="1" connect="1" arrows="1" fold="1" page="1" pageScale="1" pageWidth="827" pageHeight="1169" math="0" shadow="0">
      <root>
        <mxCell id="0" />
        <mxCell id="1" parent="0" />
        <mxCell id="GTaBL3b2TxJOTED7LHsO-2" value="" style="strokeWidth=1;shadow=0;dashed=0;align=center;html=1;shape=mxgraph.mockup.containers.browserWindow;rSize=0;strokeColor=#666666;mainText=,;recursiveResize=0;rounded=0;labelBackgroundColor=none;fontFamily=Verdana;fontSize=12" vertex="1" parent="1">
          <mxGeometry x="40" y="30" width="1120" height="820" as="geometry" />
        </mxCell>
        <mxCell id="GTaBL3b2TxJOTED7LHsO-3" value="Odoo" style="strokeWidth=1;shadow=0;dashed=0;align=center;html=1;shape=mxgraph.mockup.containers.anchor;fontSize=17;fontColor=#666666;align=left;" vertex="1" parent="GTaBL3b2TxJOTED7LHsO-2">
          <mxGeometry x="60" y="12" width="110" height="26" as="geometry" />
        </mxCell>
        <mxCell id="GTaBL3b2TxJOTED7LHsO-4" value="localhost:8069/reservas/123456ASDF-details" style="strokeWidth=1;shadow=0;dashed=0;align=center;html=1;shape=mxgraph.mockup.containers.anchor;rSize=0;fontSize=17;fontColor=#666666;align=left;" vertex="1" parent="GTaBL3b2TxJOTED7LHsO-2">
          <mxGeometry x="130" y="60" width="250" height="26" as="geometry" />
        </mxCell>
        <mxCell id="GTaBL3b2TxJOTED7LHsO-5" value="&lt;font style=&quot;font-size: 20px;&quot;&gt;Reservas /&amp;nbsp;&lt;/font&gt;&lt;span style=&quot;font-family: Helvetica; font-size: 16px; text-align: center; text-wrap-mode: wrap;&quot;&gt;&lt;font style=&quot;color: light-dark(rgb(148, 148, 148), rgb(237, 237, 237));&quot;&gt;123456ASDF&lt;/font&gt;&lt;/span&gt;" style="text;html=1;points=[];align=left;verticalAlign=top;spacingTop=-4;fontSize=30;fontFamily=Verdana" vertex="1" parent="GTaBL3b2TxJOTED7LHsO-2">
          <mxGeometry x="15" y="120" width="340" height="50" as="geometry" />
        </mxCell>
        <mxCell id="GTaBL3b2TxJOTED7LHsO-6" value="" style="verticalLabelPosition=bottom;shadow=0;dashed=0;align=center;html=1;verticalAlign=top;strokeWidth=1;shape=mxgraph.mockup.markup.line;strokeColor=#999999;rounded=0;labelBackgroundColor=none;fillColor=#ffffff;fontFamily=Verdana;fontSize=12;fontColor=#000000;" vertex="1" parent="GTaBL3b2TxJOTED7LHsO-2">
          <mxGeometry y="193" width="1120" height="20" as="geometry" />
        </mxCell>
        <mxCell id="GTaBL3b2TxJOTED7LHsO-7" value="Editar" style="strokeWidth=1;shadow=0;dashed=0;align=center;html=1;shape=mxgraph.mockup.buttons.button;strokeColor=#9673a6;mainText=;buttonStyle=round;fontSize=17;fontStyle=0;fillColor=#e1d5e7;whiteSpace=wrap;rounded=0;labelBackgroundColor=none;" vertex="1" parent="GTaBL3b2TxJOTED7LHsO-2">
          <mxGeometry x="15" y="170" width="85" height="20" as="geometry" />
        </mxCell>
        <mxCell id="GTaBL3b2TxJOTED7LHsO-8" value="&amp;lt;" style="strokeWidth=1;shadow=0;dashed=0;align=center;html=1;shape=mxgraph.mockup.buttons.button;strokeColor=#9673a6;mainText=;buttonStyle=round;fontSize=17;fontStyle=0;fillColor=#e1d5e7;whiteSpace=wrap;rounded=0;labelBackgroundColor=none;" vertex="1" parent="GTaBL3b2TxJOTED7LHsO-2">
          <mxGeometry x="1047" y="180" width="20" height="20" as="geometry" />
        </mxCell>
        <mxCell id="GTaBL3b2TxJOTED7LHsO-9" value="&amp;gt;" style="strokeWidth=1;shadow=0;dashed=0;align=center;html=1;shape=mxgraph.mockup.buttons.button;strokeColor=#9673a6;mainText=;buttonStyle=round;fontSize=17;fontStyle=0;fillColor=#e1d5e7;whiteSpace=wrap;rounded=0;labelBackgroundColor=none;" vertex="1" parent="GTaBL3b2TxJOTED7LHsO-2">
          <mxGeometry x="1077" y="180" width="20" height="20" as="geometry" />
        </mxCell>
        <mxCell id="GTaBL3b2TxJOTED7LHsO-10" value="" style="endArrow=none;html=1;rounded=0;" edge="1" parent="GTaBL3b2TxJOTED7LHsO-2">
          <mxGeometry relative="1" as="geometry">
            <mxPoint x="10" y="266" as="sourcePoint" />
            <mxPoint x="170" y="266" as="targetPoint" />
          </mxGeometry>
        </mxCell>
        <mxCell id="GTaBL3b2TxJOTED7LHsO-11" value="&lt;font style=&quot;font-size: 16px;&quot;&gt;Reserva&lt;/font&gt;" style="text;strokeColor=none;fillColor=none;align=center;verticalAlign=top;spacingLeft=4;spacingRight=4;overflow=hidden;rotatable=0;points=[[0,0.5],[1,0.5]];portConstraint=eastwest;whiteSpace=wrap;html=1;" vertex="1" parent="GTaBL3b2TxJOTED7LHsO-2">
          <mxGeometry x="10" y="230" width="160" height="26" as="geometry" />
        </mxCell>
        <mxCell id="GTaBL3b2TxJOTED7LHsO-12" value="" style="endArrow=none;html=1;rounded=0;" edge="1" parent="GTaBL3b2TxJOTED7LHsO-2">
          <mxGeometry width="50" height="50" relative="1" as="geometry">
            <mxPoint x="180" y="510" as="sourcePoint" />
            <mxPoint x="180" y="210" as="targetPoint" />
          </mxGeometry>
        </mxCell>
        <mxCell id="GTaBL3b2TxJOTED7LHsO-13" value="" style="endArrow=none;html=1;rounded=0;" edge="1" parent="GTaBL3b2TxJOTED7LHsO-2">
          <mxGeometry relative="1" as="geometry">
            <mxPoint x="190" y="266" as="sourcePoint" />
            <mxPoint x="350" y="266" as="targetPoint" />
          </mxGeometry>
        </mxCell>
        <mxCell id="GTaBL3b2TxJOTED7LHsO-14" value="&lt;font style=&quot;font-size: 16px;&quot;&gt;Cliente&lt;/font&gt;" style="text;strokeColor=none;fillColor=none;align=center;verticalAlign=top;spacingLeft=4;spacingRight=4;overflow=hidden;rotatable=0;points=[[0,0.5],[1,0.5]];portConstraint=eastwest;whiteSpace=wrap;html=1;" vertex="1" parent="GTaBL3b2TxJOTED7LHsO-2">
          <mxGeometry x="190" y="230" width="160" height="26" as="geometry" />
        </mxCell>
        <mxCell id="GTaBL3b2TxJOTED7LHsO-15" value="" style="endArrow=none;html=1;rounded=0;" edge="1" parent="GTaBL3b2TxJOTED7LHsO-2">
          <mxGeometry width="50" height="50" relative="1" as="geometry">
            <mxPoint x="360" y="510" as="sourcePoint" />
            <mxPoint x="360" y="210" as="targetPoint" />
          </mxGeometry>
        </mxCell>
        <mxCell id="GTaBL3b2TxJOTED7LHsO-16" value="" style="endArrow=none;html=1;rounded=0;" edge="1" parent="GTaBL3b2TxJOTED7LHsO-2">
          <mxGeometry relative="1" as="geometry">
            <mxPoint x="373.5" y="269" as="sourcePoint" />
            <mxPoint x="533.5" y="269" as="targetPoint" />
          </mxGeometry>
        </mxCell>
        <mxCell id="GTaBL3b2TxJOTED7LHsO-17" value="&lt;font style=&quot;font-size: 16px;&quot;&gt;Ruta&lt;/font&gt;" style="text;strokeColor=none;fillColor=none;align=center;verticalAlign=top;spacingLeft=4;spacingRight=4;overflow=hidden;rotatable=0;points=[[0,0.5],[1,0.5]];portConstraint=eastwest;whiteSpace=wrap;html=1;" vertex="1" parent="GTaBL3b2TxJOTED7LHsO-2">
          <mxGeometry x="373.5" y="233" width="160" height="26" as="geometry" />
        </mxCell>
        <mxCell id="GTaBL3b2TxJOTED7LHsO-18" value="" style="endArrow=none;html=1;rounded=0;" edge="1" parent="GTaBL3b2TxJOTED7LHsO-2">
          <mxGeometry width="50" height="50" relative="1" as="geometry">
            <mxPoint x="543.5" y="513" as="sourcePoint" />
            <mxPoint x="543.5" y="213" as="targetPoint" />
          </mxGeometry>
        </mxCell>
        <mxCell id="GTaBL3b2TxJOTED7LHsO-19" value="" style="endArrow=none;html=1;rounded=0;" edge="1" parent="GTaBL3b2TxJOTED7LHsO-2">
          <mxGeometry relative="1" as="geometry">
            <mxPoint x="560" y="269" as="sourcePoint" />
            <mxPoint x="720" y="269" as="targetPoint" />
          </mxGeometry>
        </mxCell>
        <mxCell id="GTaBL3b2TxJOTED7LHsO-20" value="&lt;font style=&quot;font-size: 16px;&quot;&gt;Hospedajes&lt;/font&gt;" style="text;strokeColor=none;fillColor=none;align=center;verticalAlign=top;spacingLeft=4;spacingRight=4;overflow=hidden;rotatable=0;points=[[0,0.5],[1,0.5]];portConstraint=eastwest;whiteSpace=wrap;html=1;" vertex="1" parent="GTaBL3b2TxJOTED7LHsO-2">
          <mxGeometry x="560" y="233" width="160" height="26" as="geometry" />
        </mxCell>
        <mxCell id="GTaBL3b2TxJOTED7LHsO-21" value="" style="endArrow=none;html=1;rounded=0;" edge="1" parent="GTaBL3b2TxJOTED7LHsO-2">
          <mxGeometry width="50" height="50" relative="1" as="geometry">
            <mxPoint x="730" y="513" as="sourcePoint" />
            <mxPoint x="730" y="213" as="targetPoint" />
          </mxGeometry>
        </mxCell>
        <mxCell id="GTaBL3b2TxJOTED7LHsO-22" value="" style="endArrow=none;html=1;rounded=0;" edge="1" parent="GTaBL3b2TxJOTED7LHsO-2">
          <mxGeometry relative="1" as="geometry">
            <mxPoint x="740" y="269" as="sourcePoint" />
            <mxPoint x="900" y="269" as="targetPoint" />
          </mxGeometry>
        </mxCell>
        <mxCell id="GTaBL3b2TxJOTED7LHsO-23" value="&lt;font style=&quot;font-size: 16px;&quot;&gt;Pack&lt;/font&gt;" style="text;strokeColor=none;fillColor=none;align=center;verticalAlign=top;spacingLeft=4;spacingRight=4;overflow=hidden;rotatable=0;points=[[0,0.5],[1,0.5]];portConstraint=eastwest;whiteSpace=wrap;html=1;" vertex="1" parent="GTaBL3b2TxJOTED7LHsO-2">
          <mxGeometry x="740" y="233" width="160" height="26" as="geometry" />
        </mxCell>
        <mxCell id="GTaBL3b2TxJOTED7LHsO-24" value="" style="endArrow=none;html=1;rounded=0;" edge="1" parent="GTaBL3b2TxJOTED7LHsO-2">
          <mxGeometry width="50" height="50" relative="1" as="geometry">
            <mxPoint x="910" y="513" as="sourcePoint" />
            <mxPoint x="910" y="213" as="targetPoint" />
          </mxGeometry>
        </mxCell>
        <mxCell id="GTaBL3b2TxJOTED7LHsO-25" value="" style="endArrow=none;html=1;rounded=0;" edge="1" parent="GTaBL3b2TxJOTED7LHsO-2">
          <mxGeometry relative="1" as="geometry">
            <mxPoint x="923.5" y="272" as="sourcePoint" />
            <mxPoint x="1083.5" y="272" as="targetPoint" />
          </mxGeometry>
        </mxCell>
        <mxCell id="GTaBL3b2TxJOTED7LHsO-26" value="&lt;font style=&quot;font-size: 16px;&quot;&gt;Estado&lt;/font&gt;" style="text;strokeColor=none;fillColor=none;align=center;verticalAlign=top;spacingLeft=4;spacingRight=4;overflow=hidden;rotatable=0;points=[[0,0.5],[1,0.5]];portConstraint=eastwest;whiteSpace=wrap;html=1;" vertex="1" parent="GTaBL3b2TxJOTED7LHsO-2">
          <mxGeometry x="923.5" y="236" width="160" height="26" as="geometry" />
        </mxCell>
        <mxCell id="GTaBL3b2TxJOTED7LHsO-27" value="" style="endArrow=none;html=1;rounded=0;" edge="1" parent="GTaBL3b2TxJOTED7LHsO-2">
          <mxGeometry width="50" height="50" relative="1" as="geometry">
            <mxPoint x="1093.5" y="516" as="sourcePoint" />
            <mxPoint x="1093.5" y="216" as="targetPoint" />
          </mxGeometry>
        </mxCell>
        <mxCell id="GTaBL3b2TxJOTED7LHsO-28" value="&lt;font style=&quot;font-size: 16px;&quot;&gt;1 / 4&lt;/font&gt;" style="text;html=1;align=center;verticalAlign=middle;resizable=0;points=[];autosize=1;strokeColor=none;fillColor=none;" vertex="1" parent="GTaBL3b2TxJOTED7LHsO-2">
          <mxGeometry x="982" y="175" width="50" height="30" as="geometry" />
        </mxCell>
        <mxCell id="GTaBL3b2TxJOTED7LHsO-29" value="&lt;font style=&quot;font-size: 16px;&quot;&gt;123456ASDF&lt;/font&gt;" style="text;strokeColor=none;fillColor=none;align=center;verticalAlign=top;spacingLeft=4;spacingRight=4;overflow=hidden;rotatable=0;points=[[0,0.5],[1,0.5]];portConstraint=eastwest;whiteSpace=wrap;html=1;" vertex="1" parent="GTaBL3b2TxJOTED7LHsO-2">
          <mxGeometry x="10" y="290" width="160" height="26" as="geometry" />
        </mxCell>
        <mxCell id="GTaBL3b2TxJOTED7LHsO-30" value="&lt;font style=&quot;font-size: 16px;&quot;&gt;Ernesto CÃ³rdoba&lt;/font&gt;" style="text;strokeColor=none;fillColor=none;align=center;verticalAlign=top;spacingLeft=4;spacingRight=4;overflow=hidden;rotatable=0;points=[[0,0.5],[1,0.5]];portConstraint=eastwest;whiteSpace=wrap;html=1;" vertex="1" parent="GTaBL3b2TxJOTED7LHsO-2">
          <mxGeometry x="190" y="290" width="160" height="26" as="geometry" />
        </mxCell>
        <mxCell id="GTaBL3b2TxJOTED7LHsO-31" value="&lt;font style=&quot;font-size: 16px;&quot;&gt;Francesa 1&lt;/font&gt;" style="text;strokeColor=none;fillColor=none;align=center;verticalAlign=top;spacingLeft=4;spacingRight=4;overflow=hidden;rotatable=0;points=[[0,0.5],[1,0.5]];portConstraint=eastwest;whiteSpace=wrap;html=1;" vertex="1" parent="GTaBL3b2TxJOTED7LHsO-2">
          <mxGeometry x="373.5" y="293" width="160" height="26" as="geometry" />
        </mxCell>
        <mxCell id="GTaBL3b2TxJOTED7LHsO-32" value="&lt;font style=&quot;font-size: 16px;&quot;&gt;3&lt;/font&gt;" style="text;strokeColor=none;fillColor=none;align=center;verticalAlign=top;spacingLeft=4;spacingRight=4;overflow=hidden;rotatable=0;points=[[0,0.5],[1,0.5]];portConstraint=eastwest;whiteSpace=wrap;html=1;" vertex="1" parent="GTaBL3b2TxJOTED7LHsO-2">
          <mxGeometry x="560" y="293" width="160" height="26" as="geometry" />
        </mxCell>
        <mxCell id="GTaBL3b2TxJOTED7LHsO-33" value="&lt;font style=&quot;font-size: 16px;&quot;&gt;Adventure Pack&lt;/font&gt;" style="text;strokeColor=none;fillColor=none;align=center;verticalAlign=top;spacingLeft=4;spacingRight=4;overflow=hidden;rotatable=0;points=[[0,0.5],[1,0.5]];portConstraint=eastwest;whiteSpace=wrap;html=1;" vertex="1" parent="GTaBL3b2TxJOTED7LHsO-2">
          <mxGeometry x="740" y="293" width="160" height="26" as="geometry" />
        </mxCell>
        <mxCell id="GTaBL3b2TxJOTED7LHsO-34" value="&lt;font style=&quot;font-size: 16px; color: light-dark(rgb(51, 0, 255), rgb(237, 237, 237));&quot;&gt;Pendiente&lt;/font&gt;" style="text;strokeColor=none;fillColor=none;align=center;verticalAlign=top;spacingLeft=4;spacingRight=4;overflow=hidden;rotatable=0;points=[[0,0.5],[1,0.5]];portConstraint=eastwest;whiteSpace=wrap;html=1;" vertex="1" parent="GTaBL3b2TxJOTED7LHsO-2">
          <mxGeometry x="923.5" y="296" width="160" height="26" as="geometry" />
        </mxCell>
        <mxCell id="GTaBL3b2TxJOTED7LHsO-35" value="Crear" style="strokeWidth=1;shadow=0;dashed=0;align=center;html=1;shape=mxgraph.mockup.buttons.button;strokeColor=#9673a6;mainText=;buttonStyle=round;fontSize=17;fontStyle=0;fillColor=none;whiteSpace=wrap;rounded=0;labelBackgroundColor=none;" vertex="1" parent="GTaBL3b2TxJOTED7LHsO-2">
          <mxGeometry x="110" y="170" width="85" height="20" as="geometry" />
        </mxCell>
        <mxCell id="GTaBL3b2TxJOTED7LHsO-37" value="&lt;span style=&quot;color: rgba(0, 0, 0, 0); font-family: monospace; font-size: 0px; text-align: start; text-wrap-mode: nowrap;&quot;&gt;%3CmxGraphModel%3E%3Croot%3E%3CmxCell%20id%3D%220%22%2F%3E%3CmxCell%20id%3D%221%22%20parent%3D%220%22%2F%3E%3CmxCell%20id%3D%222%22%20value%3D%22%22%20style%3D%22shape%3Dimage%3BverticalLabelPosition%3Dbottom%3BlabelBackgroundColor%3Ddefault%3BverticalAlign%3Dtop%3Baspect%3Dfixed%3BimageAspect%3D0%3Bimage%3Ddata%3Aimage%2Fpng%2CiVBORw0KGgoAAAANSUhEUgAAAgAAAAIACAYAAAD0eNT6AAAAAXNSR0IArs4c6QAAIABJREFUeAHt3Qusbdtd1%2FHfbUsp0NJSoUEp0FYNlUeDFRM1EJCgIC0EUzHYAo0mKiE8TbCkgpFHFRArkAAGtFYJxlBbHgIxNq0U1FLbUuRRU3uL5UJv6X0%2F2%2Fts3f971749d52zz55rrznXGmPMz0h29ln7zDXmGN%2FxG%2F%2F%2Fb44115iJggACCCCAAAIIIIAAAggggAACCCCAAAIIIIAAAggggAACCCCAAAIIIIAAAggggAACCCCAAAIIIIAAAggggAACCCCAAAIIIIAAAggggAACCCBwbAKPT%2FLpSV6Q5LuS%2FHSSX0zya0neluSdSX4%2FyXV%2BMKCBbjVQc7jmcs3pmts1x2uu15yvuV8xoGKBggACAxN4QpLnJ3l1kuuT3JTkhiR3JPlgkg%2F5wYAGVqOBmvM19ysGVCyomFCx4XlJKlYoCCDQOYGnJnlxkl%2FdTPLbBfjVBHiGjqm9iAYqRpQhqJhRsaNiiIIAAp0QeEaSbztZ3vvtzUR%2Bv6Qv6dMADVxAAxU7ygxULKmYUrFFQQCBBgl8bpLf2UzY%2By8w2S9yteA9rjJpYB0aqJhSZqBiTMUaBQEEGiBQN%2FHUct0tkr6rPBqggQNooGJNxZyKPQoCCByBwCedTMCfSXLzASa8q7x1XOUZZ%2BO8iwYq9lQMqlikIIDAAQg8JckPbxL%2FA5K%2FKz4aoIEjaqBiUBmBikkVmxQEEFiAwGOSvCTJjUnuOeKE3%2BUKwbGuKGlgHRqomFSxqWJUxSoFAQRmIvCkJG%2FYfG9XQF1HQDXOxrlHDdTeAhWrKmYpCCCwJ4FnJXmXq37LvFZ9aKATDdRqwO8lqdilIIDABQl8wWanLjv1uRrs8WpQm9er24pZtctgxTAFAQR2JPAN7vB3xdfJFZ9Ev95Ef97Y11cGK5YpCCAwgcDjkrzC9%2Folf8mfBgbRwK2bmFaxTUEAgTMI1Ndo3pTkzkEm%2FnlXB%2F7flSMNrEMDFdMqtvmq4BnB35%2FXTaDc8ZuT3Cf5u%2FKjARoYUAMV2yrGWQlYd67T%2BysQeKUrf0F%2FwKDvCn8dV%2FhTx%2Fmuk4cKVaxTEEBgQ%2BAbk9TnZFMnkeOwogEa6FUDt53c4FwxT0Fg9QTqazL28xfMew3m2k27F9FAfTvAVwRXn%2F7WDeCZm%2B%2FKXmQCeY%2FASwM00LMGauvgioEKAqsj8MTNDn89T2Btl4BogAb20UDtclqxUEFgNQSuOVn%2B%2BpUk9%2Frc330PNEADK9ZAxcCKhRUTFQRWQeDb3fEv6K846O9zxei946041B4BFRMVBIYnUBth1GdfAhkGNEADNPCwBiom2iRo%2BPSngz9msx%2FmhwGkARp4lAZqk6CKjQoCwxL4FF%2F5e9Skd%2FXjCpgGaOBUA%2FV16IqRCgJDEvj5JA9y%2FkwADdAADVymgYqNFSMVBIYj8Nmu%2Fi%2Bb8KfO329XgTRAA6WBWgWoWKkgMBSBehKWIIcBDdAADVxdAxUrFQSGIfBXXP0zPwwgDdDAJA3UKkDFTAWBIQi808SfNPFdGV39yggffNaigYqZCgLdE%2Fgs%2B%2F1L%2FgwgDdDAThq4Iclzuo%2F%2BOrB6At%2Bb5H6Tf6fJv5arHP10RU8DV9ZAxcyKnQoCXROoh12Y5BjQAA3QwG4aqNipINAtgacnuYkBYIBogAZoYGcNVOysGKog0CWBbzp5yMU9Jv7OE9%2BV0m5XSnjhNaIGKnZWDFUQ6JLAWyV%2FyZ8GaIAGLqyBiqEKAt0RePKJe72lo4lfD%2BOoJ3Jdn6Q24nhVkh%2F3gwENdK%2BBmss1p2tu1xyvud7LikHF0IqlCgJdEXhhkrs6mGi1%2F3ZNspckeVZXhDUWAQR2JVBzvOZ6zfkenktSMbRiqYJAVwRe20HyvzfJ65J8QldkNRYBBPYlUHO%2B5n7FgNZXAyqWKgh0RaC2s2x1YpXzvzXJi7siqrEIIDA3gYoBFQtaXg2oWKog0A2Bj2388%2F9a%2FvPc7W7kpKEILEqgYkHFhFYvWKptFVMVBLog8DkNP%2Fynlvy%2BuguKGokAAociUDGh1Y8DagWgYqqCQBcEXtTo9%2F9rmc%2FnaV1ISCMRODiBig0tfhRQ%2BwFUTFUQ6ILAyxtdTrstydO6IKiRCCBwaAIVGypGtPhRQMVUBYEuCPxCg5OoXPS3dkFPIxFA4FgEKka0uHtpxVQFgS4IvKFBA1Cfo9lXuwv5aCQCRyNQMaLFbzBVTFUQ6ILA2xo0AO%2FugpxGIoDAsQlUrGjtY4CKqQoCXRC4tsEJ9PouyGkkAggcm0DFitYMQMVUBYEuCLy3wQn0ii7IaSQCCBybQMWK1gxAxVQFgS4ItPgZ2vd1QU4jEUDg2AQqVrRmACqmKgh0QaDFXbUYgC6ko5EIHJ1AiwagYqqCQBcEGIAuhkkjEUDgCgQYgCtA8ScEphJgAKaSchwCCLRGgAFobUS0pysCDEBXw6WxCCBwCQEG4BIY%2FonArgQYgF2JOR4BBFohwAC0MhLa0SUBBqDLYdNoBBBIwgCQAQJ7EGAA9oDnrQggcFQCDMBR8Tt57wQYgN5HUPsRWC8BBmC9Y6%2FnMxBgAGaAqAoEEDgKAQbgKNiddBQCDMAoI6kfCKyPAAOwvjHX4xkJMAAzwlQVAggclAADcFDcTjYaAQZgtBHVHwTWQ4ABWM9Y6%2BkCBBiABaCqEgEEDkKAATgIZicZlQADMOrI6hcC4xNgAMYfYz1ckAADsCBcVSOAwKIEGIBF8ap8dAIMwOgjrH8IjEuAARh3bPXsAAQYgANAdgoEEFiEAAOwCFaVroUAA7CWkdZPBMYjwACMN6Z6dEACDMABYTsVAgjMSoABmBWnytZGgAFY24jrLwLjEGAAxhlLPTkCAQbgCNCdEgEEZiHAAMyCUSVrJcAArHXk9RuB%2FgkwAP2PoR4ckQADcET4To0AAnsRYAD2wufNayfAAKxdAfqPQL8EGIB%2Bx07LGyDAADQwCJqAAAIXIsAAXAibNyHwMAEGgBIQQKBXAgxAryOn3U0QYACaGAaNQACBCxBgAC4AzVsQOCXAAJyS8BsBBHojwAD0NmLa2xQBBqCp4dAYBBDYgQADsAMshyKwTYAB2CbiNQII9EKAAehlpFbUzo9P8peS%2FO0k%2FyjJy5O8IslrkrwuyX9v6Of%2BJB9q7OcPG%2BLT0lhpS1tzx3gcfzwqVrQWvyqmtqSNyjmVeyoHVS6qnFS5qXJU5SplDwKPTfL5SX4iyTuS3Jzkxs3PBxoUZ2uTRXvaC2DGxJjQwNgaqNx0mqcqZ1XuqhxWuaxymnIVAh%2BV5Ms3rqrg3ZTkg5J9c05cEBs7iBlf40sD82mgcljlsspptWJQOa5ynZLkqUm%2BNskbktTn5rdJ%2BBI%2BDdAADdDAoBqoHFe5rnJe5b7Kgasrz03yxo0runvQgeai53PRWGJJAzQwmgYq99XKQOXCyonDl2cm%2BaWNAxptMPVHgKIBGqABGriIBmpVoHJj5cjhSt0V%2Ba83id%2Fn%2BibIRSaI99ANDdDAyBqo3FhGoHLlEN8k%2BOgk371Z5rjPUr%2FP9WiABmiABmjgqhqoXFkfDVTurBzaXbkmydcleV%2BS9xvsqw72yI5W31yx0QAN0MDFNFC5s3Jo5dLKqV2Uj9lszHOHxC%2Fx0wAN0AAN0MBeGqhc%2BvoklVubLp%2Ba5Nok9xrwvQacY76YY8YNNxqggRE1UDm1cmvl2CbL5ya5weY9Ej%2FzRwM0QAM0MLsG6ibByrGf15oDqM8o6u7FEZ2XPhlXGqABGqCBVjRw6%2Ba%2BgKP7gNrfuPY6toOfydHK5NAOWqQBGhhdA7cn%2BcljPmPgyZsdjO5y5W%2FlgwZogAZogAYOqoHaSfDXk1QuPmj5iCS%2FefIIxBYfezu689M%2FVzc0QAM0QAOlgcrBv5WkcvLBys%2F4fv9BnZ7JbrLTAA3QAA1cSQP1GOJXHSr7v8Rn%2FpK%2FpT4aoAEaoIFmNFD3BHz70ibgS5LUHYhXciH%2BhgsN0AAN0AANHEcDlZv%2F2lIm4NOS3CT5Mz80QAM0QAM00KQG6hkClatnLR%2BX5DoD3uSAc9vHcdu4404DNNCiBipXV86epdR3%2Fd%2BUxNP8iL1FsWsTXdIADdDAhzVQubpyduXuvcu%2FTOK7%2Fh%2BGS2hY0AAN0AANtKyBytmVu%2FcqT7fFr2V%2FH%2F3QAA3QAA10p4Hanr9y%2BIXLa5I8YOC7G%2FiWnam2uXKiARqggeU1ULm7cviFyme6%2Bpf4mT8aoAEaoIFuNVCrAJXLdy7%2Fw6B3O%2Bjc9fLuGmOMaYAGetBA5fKdyufb8EfyZwBpgAZogAa610BtEFQ5fXJ5h0HvftB7cKba6AqKBmiABpbXQOX0SeWrktS%2BwgYFAxqgARqgARroXwOV0yu3X7U8Lsl7JH%2FmhwZogAZogAaG0kDl9srxZ5Yv8qS%2FoQacc%2B%2FfuRtDY0gDNDCHBm5LUjn%2BzPJTHB8DQAM0QAM0QANDaqBy%2FJnlfQZ9yEGfwz2qw1UIDdAADfStgcrxVyzP9bhfyZ8BpAEaoAEaGFYDNyWpXH9Z%2BcEkHzTwww485963czd%2Bxo8GaGBfDVSOr1x%2FWXm35C%2F50wAN0AAN0MDQGqhc%2F6jyjCQ3djTo5WJqKaP2Of6DJG9O8no%2FGNAADdAADRxAA5VzKvdUDqpc1NPqeeX6yvmPlG9Lcl8HBqAg11cZfiTJX0jymEd64B8IIIAAAggclkDloMpFlZNqy90ejEDl%2Bsr5j5Tf6iD5V6N%2FPcmfeKTV%2FoEAAggggEAbBCo3VY7q4WK6cv5D5fFJbm7YAJSjujPJ15822G8EEEAAAQQaJVC5qnJWy6sBlfMr9%2BczTpLrDQ0bgPp85ZmNDrRmIYAAAgggsE2gclblrn3v2l%2Fq%2FZXzK%2FfnBRu3stSJ9qn33iRftk3WawQQQAABBBonULmrctg%2BOXCp99YKReX%2BfE%2BjDXwgyasbH2DNQwABBBBA4CwClcMqly2VyPept3J%2FfrnRxtXyyceeRdXfEUAAAQQQaJxA5bBWPwqo3J%2B3N2gA7jhp199sfGA1DwEEEEAAgfMIVC6rnLbP1foS763cn%2BsabFhtrvDR51H1%2FwgggAACCDROoHJZ5bQlkvg%2BdVbuT4tPAHxj4wOqeQgggAACCEwlUDltn2S9xHsfejJgi1sA%2F9hUqo5DAAEEEECgcQKV05ZI4vvUWbm%2FuRsUavOEb2l8MDUPAQQQQACBqQQqp7W2MVDdnNjcZxMfSPK3plJ1HAIIIIAAAo0TqJxWuW2fK%2Fa531v3JTRnAO5J8lWND6bmIYAAAgggMJVA5bTKbXMn8X3qYwCmjp7jEEAAAQQQuCABBmCi%2B7ECcEGFeRsCCCCAQJMEGAAGoElhahQCCCCAwLIEGAAGYFmFqR0BBBBAoEkCDAAD0KQwNQoBBBBAYFkCDAADsKzC1I4AAggg0CQBBoABaFKYGoUAAgggsCwBBoABWFZhakcAAQQQaJIAA8AANClMjUIAAQQQWJYAA8AALKswtSOAAAIINEmAAWAAmhSmRiGAAAIILEuAAWAAllWY2hFAAAEEmiTAADAATQpToxBAAAEEliXAADAAyypM7QgggAACTRJgABiAJoWpUQgggAACyxJgABiAZRWmdgQQWAWBxyZ5Quc%2Fj1nFSH24kwwAA%2FBhNfgXAgggcA6Ba5J8YZJvTfJTSd6S5I%2BS3DzAzy1JbkryniRvTvKPkzw3yajGgAFgAM6Z7v4bAQQQSD4yydcn%2BcMklSgfnBg7P9TxcQ9sDMGNSb43yVMGEwIDMFGc9yQpWAoCCCCwJgKV9F6WpJLg3RPjZc9J%2F6y237sxPj%2BUh83QCBpgACYKmgEYQe76gAACuxD49M1yeCW%2FsxLj2v7%2BgSTvSvIZu4Bs9FgGYKKwGYBGFaxZCCCwCIEv3Xymv7YEP7W%2F9THIVy9C%2FnCVMgAMwOHU5kwIINAFgX%2BY5NaJsXFqwhzxuDIBL%2BhiRK%2FcSAZgositAFxZQP6KAAJjEfjOJLdNjIsjJvVd%2B1Qm4Es6lQADMFHoDECnCtdsBBCYTODZrvwvdK9DfXWw7pforTAADEBvmtVeBBBYgEB91%2F13J8bDXa%2BS13D8bywwJktXyQBMFLwVgKWlqH4EEDgmgZcmuXNiPFxDQt%2B1j7cn%2BdpjDuAFzs0ATBQ8A3ABdXkLAgh0QeBT3fF%2FoaX%2FbZNwQ5IndjHiDzeSAWAAOpKrpiKAwBIE%2FlmS2vVuO6F5vRuTu5K8eIkBWqhOBmCi6K0ALKRA1SKAwNEJXDcxDjIE5xuCNx59NKc3gAGYKHwGYLqoHIkAAv0Q%2BKzNfveS%2B%2FnJfQqjeihSL88MYAAYgH4ilZYigMDsBL7%2F5Kl3H5wYB6ckwLUf8%2F4kL5p9lJapkAGYKHwrAMsIUK0IIHBcAv9lYgxce2Lfpf8%2FcNwhnXx2BmCi%2BBmAyZpyIAIIdETg7RNj4C4JcO3H%2Fmwn488ATBQ%2FA9CJojUTAQR2IvBHE2Pg2pP6Lv3vZVMgBmCi%2BBmAnWKKgxFAoBMCtY3tLsnNsefz%2BoNOxp4BmCh%2BBqATRWsmAgjsRMAKwPkJfVfT8392GoHjHcwAMADHU58zI4DA0Qm8ZWIM3DUJrvn41x19VKc1gAGYKH4rANME5SgEEOiLwL%2BdGAPXnNB37Xsx7aEwABPFzwD0IGdtRACBXQl8Q5L7JsbBXRPhGo8vlt%2B86yAc6XgGYKLwGYAjKdRpEUBgUQJfZCfAWW%2BCrJsqn7HoiM1XOQPAAMynJjUhgEB3BD4uyS0T4%2BAar%2Bh37fO7O1IAAzBR%2BFYAOlK1piKAwE4EftTHALOsAjyY5J%2FvRP64BzMADMBxFejsCCBwdAJPswowiwGolZRPPPpoTm8AA8AATFeLIxFAYFgC%2F8oqwF4moFaJf7AzdTAADEBnktVcBBBYgkBduboX4OKbAt1wYgCeuMTALFgnA8AALCgvVSOAQE8E%2FkmS2yfGxF1vjhv5%2BFuTfEVPA71pKwMwUexuAuxQ3ZqMAAI7E%2Fj3Se6aGBdHTupT%2B3ZHku%2FdmXIbb2AAJgqdAWhDsFqBAALLEnhMktrK9gMTY%2BPURDnicWWUfmnZ4Vi0dgZgosgZgEV1qHIEEGiIwBOSvClJXd2OmLjn6NNtSV6R5LENjduuTWEAJgqcAdhVWo5HAIGeCdRKwHecbGtbn2%2FPkTBHqqOSf22h3HthACaKmwHoXerajwACFyHwGUmuTXLnxFg5UqLf7ksl%2Frcm%2BbMXAdngexiAiaJmABpUryYhgMBBCHxEkhcn%2Bd9Jbk5SO95tJ8dRX9%2B%2FeVbCO5L81YPQPtxJGICJQmYADidKZ0IAgXYJPDPJv0hSe97XvgFlCG7cfH2wborr%2Bae%2BAlkP86mf%2Bujj7SebI700yZ9sdzj2ahkDwADsJSBvRgCBdRN4UpL6mOBLNt%2BFr%2B%2FD9%2FrzxUmek%2BTjk1yzgmFlABiAFchcFxFAAAEEtgkwAAzAtia8RgABBBBYAQEGgAFYgcx1EQEEEEBgmwADwABsa8JrBBBAAIEVEGAAGIAVyFwXEUAAAQS2CTAADMC2JrxGAAEEEFgBAQaAAViBzHURAQQQQGCbAAPAAGxrwmsEEEAAgRUQYAAYgBXIXBcRQAABBLYJMAAMwLYmvEYAAQQQWAEBBoABWIHMdREBBBBAYJsAA8AAbGvCawQQQACBFRBgABiAFchcFxFAAAEEtgkwAAzAtia8RgABBBBYAQEGgAFYgcx1EQEEEEBgmwADwABsa8JrBBBAAIEVEGAAGIAVyFwXEUAAAQS2CTAADMC2JrxGAAEEEFgBAQaAAViBzHURAQQQQGCbAAPAAGxrwmsEEEAAgRUQYAAYgBXIXBcRQAABBLYJMAAMwLYmvEYAAQQQWAEBBoABWIHMdREBBBBAYJsAA8AAbGvCawQQQACBFRBgABiAFchcFxFAAAEEtgkwAAzAtia8RgABBBBYAQEGgAFYgcx1EQEEEEBgmwADwABsa8JrBBBAAIEVEGAAGIAVyFwXEUAAAQS2CTAADMC2JrxGAAEEEFgBAQaAAViBzHURAQQQQGCbAAPAAGxrwmsEEEAAgRUQYAAYgBXIXBcRQAABBLYJMAAMwLYmvEYAAQQQWAEBBoABWIHMdREBBBBAYJsAA8AAbGvCawQQQACBFRBgABiAFchcFxFAAAEEtgkwAAzAtia8RgABBBBYAQEGgAFYgcx1EQEEEEBgmwADwABsa8JrBBBAAIEVEGAAGIAVyFwXEUAAAQS2CTAADMC2JrxGAAEEEFgBAQaAAViBzHURAQQQQGCbAAPAAGxrwmsEEEAAgRUQYAAYgBXIXBcRQAABBLYJMAAMwLYmvEYAAQQQWAEBBoABWIHMdREBBBBAYJsAA8AAbGvCawQQQACBFRBgABiAFchcFxFAAAEEtgkwAAzAtia8RgABBBBYAQEGgAFYgcx1EQEEEEBgmwADwABsa8JrBBBAAIEVEGAAGIAVyFwXEUAAAQS2CTAADMC2JrxGAAEEEFgBAQaAAViBzHURAQQQQGCbAAPAAGxrwmsEEEAAgRUQYAAYgBXIXBcRQAABBLYJMAAMwLYmjv76cUn%2BdJLnJ%2Fn7SV6a5OVJXpnk55P81ySv9YMBDXSrgZrDNZdrTtfcrjlec73mfM39igHK8gQYAAZgeZWdc4Y%2FtQkA%2F%2FMkCLw3ya1JbkpyZ5IPThyfDzkuGASDjufBg0nu2Mz9igEVCyomlDmoGKHMT4ABmDhh7klSsJT9CVyT5M8n%2BaEkf7CZ8PdPHAdJTpKjgXVpoGJDXRBUrKiYUbGjYoiyPwEGYGLiYQD2E9vjk3xxkv%2BQ5IbNhHZ1v65ALnEb7301UDGjzEDFkIolFVMqtigXI8AAMAAXU87Ed31Skv%2B4mbS3TGS9b5DwfomGBtahgYopZQgqxlSsUXYjwABMTEpWAHYT1pOT%2FPBmcj4wkbGgvY6gbZyN89waqBhTRqBiTsUeZRoBBmBicmIApgmqluNekuTGJMVs7omuPkxpgAbO0kDFnIo9FYN8NHB%2BzGYAJiYpBuDqYqqbcr4myfVJ7prI9KxJ7O8CPA3QwD4aqBhUsahikhsGz47dDMDEZMUAnC2iL0zyziS3TWS5z8T2XomBBmhgqgYqJlVsqhilXE6AAZiYtBiAy8XzmCQ%2FIvH7mGPiHJoatB0nwc%2BtgTICFasqZikfJsAATAxeDMCHRVP%2FelKSN2w265l7sqpPAqABGphbA7WxWMWsil3KwwQYAAZg57nwrCT%2FL8m9E9nNPZHVJznQAA1cRAMVsyp2VQxTHt7cri5uL8JyqffUVzvT2nfGrQA8PF3qs7S6y9YmPm1NmqUmo3qN82gaON1MyH0BDMBk58MAJN%2By2ad%2FtICgP5IcDaxPA3VfQMW0NRcfAUxc%2FlizAfiIJD%2FlZr%2FJZlEyWV8yMeZ9jvntm9hWMW6NhQFgAM7V%2FWt8t1%2FynzhPJMI%2BE%2BGax%2B3uJBXj1lgYgImBba0rAPUoTt%2FvF9TXnCD0fXz910pAxbq1FQaAAThT81%2Fa4M2YgvH4wdgYG%2BNjaKAudCrmrakwAAzAFfX%2B7M3DNY4xEZ1TAqABGjiGBuqBQhX71lIYAAbgMq1%2FXJLrJnI5xiR1TsmBBmhgKQ1U7KsYuIbCAExMdGu5B%2BCxSX795POw%2ByZyWWoSqleApwEaOIYGKva9KUnFwtELAzAx0a3FAPwb2%2Fu643%2FinDhGcHZOpuAQGqhtgysWjl4YgInBbg0G4IU2%2BpH8J86HQwRh55Dsj6mBW5NUTBy5MAATA97oBuAjN8%2FPPuaEc24BnwZooCUNXJ%2BkYuOohQFgAB7Sdn0H9q6JLFqaoNoiYdAADSylgYqJI%2B8PwABMTHojrwA8ZfOAn6UmkXoFaBqggV41UA8%2Fqxg5YmEAGID8aJIyOL1OUO02djRAA0tpoGJjxcgRCwMwMfGNugLwyTb8YXwmzoGlAqx6Je%2FWNVAbBFWsHK0wABOD36gG4GeTPDCRQeuTVPskEhqggSU0UDGyYuVohQGYmPxGNADPcfXv6n%2Bi%2FpcIquqUrHvSQK0CVMwcqTAAEwPgiAbgjRP73tMk1VZJhQZoYCkNVMwcqTAAE5PgaAbgU9357%2Bp%2FovaXCqbqlah700B9I6Bi5yiFAZgYBEczAP%2FAnf8MwETt9xaktZexWEoDlQcqdo5SGICJQXA0A%2FCbE%2Fu91ERSryBNAzTQowYqdo5SGICJiXAkA1CPurx5Yr97nKDaLLHQAA0spYGKnaM8LpgBmJgIRzIAX2PbX8v%2FE3W%2FVBBVrwTdqwZqe%2BCKoSMUBmBiIBzJALx%2BYp97naDaLbnQAA0sqYGKoSMUBmBiMhzFANSTrW6Z2OclJ9Audd%2B2afMNJ4%2Fn%2FL9J3uIHAxroXgM1l2tOVzyqOb5LTDj2sdXmEZ4SyABMFN4oBuBLk9w%2Bsc%2FHnmTVzp9L8mVJnjCC3dYHBBC4jEDN7ZrjNdd7ik0VS3svDMDEZDiKAXjVxP4eM%2Fnfl%2BS6JM%2FtfXZpPwII7ESg5nzN%2FYoBx4xBU85dsbT3wgBMFNooBqCW3KaI%2B1jH3Hny6M0fSvL43meW9iOAwIUI1NyvGFCx4FhxaMp5K5b2XhiAiSIbwQB8VOOf%2F9fngH%2Bx9xml%2FQggMAuBigUt3xtQ9wFUTO25MAArMgAtP%2FynDNZ39DyTtB0BBGYnUDGhYsOUK%2FJDHzPCw4EYgIniGmEF4CuT3D2xv4eeTG9P8tjZw4cKEUCgZwIVEyo2HDoeTTlfxdKKqT0XBmCiuEYwAC%2Bb2Ncp4p%2FzmNpY49k9zyJtRwCBxQhUbKgYMWfMmauuiqk9FwZgorBGMACvmdjXuSbHlHruT%2FIDPc8gbUcAgcUJVIyoWDElphzymIqpPRcGYKKoRjAALe4AWJ%2BjufrvOYRoOwLLE6gYUbHikMl9yrn%2B2%2FJdX%2FQMDMBEUY1gAN46sa9ThD%2FXMdcvKm%2BVI4DAKAQqVswVd%2Baqp2Jqz4UBmCiqEQxAbb05l%2FDnqufXep492o4AAgcjULFirrgzVz0VU3suDMCtCdpOAAAWCklEQVREUY1gAN4zsa9zTY4p9fx0z7NH2xFA4GAEKlZMiSmHPKZias%2BFAZgoqhEMQD3H%2BpCTY8q5vr%2Fn2aPtCCBwMAIVK6bElEMeUzG158IATBTVCAagxacAfl%2FPs0fbEUDgYAQqVhwyuU85V8XUngsDMFFUDMAyk48B6Dl8aDsChyPAAMzPmgFgAI7qqhmA%2BSe1GhEYkQADMP%2BoMgAMAAMw%2F7xSIwIIzEyAAZgZaBIGgAFgAOafV2pEAIGZCTAAMwNlAKZ%2Fru0egOmsptw8c3qMjwDmn9RqRGBEAgzA%2FKNqBcAKgBWA%2BeeVGhFAYGYCDMDMQK0ATL%2BqtQIwndXp1f2U31YA5p%2FUakRgRAIMwPyjagXACoAVgPnnlRoRQGBmAgzAzECtAEy%2FqrUCMJ3VlCv%2F02OsAMw%2FqdWIwIgEGID5R9UKgBUAKwDzzys1IoDAzAQYgJmBWgGYflVrBWA6q9Or%2Bym%2FrQDMP6nViMCIBBiA%2BUfVCoAVACsA888rNSKAwMwEGICZgba8AtDak%2BvuT%2FJ35ud%2F0Bo9DOiguJ0MAQRmJMAAzAhzU1XltMptU1ZrD3XMQ09YvLGxRlXn%2F%2Bn8%2FA9aIwNwUNxOhgACMxJgAGaEuamqctqhEvvU81Tuz%2FsabNir5%2Bd%2F0BoZgIPidjIEEJiRAAMwI8xNVZXTpibmQx1XuT%2FXN9iw987P%2F6A1MgAHxe1kCCAwIwEGYEaYm6oqpx0qsU89T%2BX%2BXNtgw25K8pnzj8HBamQADobaiRBAYGYCDMC8QCuXVU6bmpgPdVzl%2FrypwYY9mOQX5x2Dg9bGABwUt5MhgMCMBBiAGWFuclnltEMl9qnnqdyfn2iwYdWB9yf5ynnH4WC1MQAHQ%2B1ECCAwMwEGYD6glcMql01Nyoc8rnJ%2F%2Fl6S%2Bxpt4J1JPmG%2BsThYTQzAwVA7EQIIzEyAAZgHaOWuymGHTOpTz1U5v3J%2FPq%2FRzyeqIw%2BctO9184zFQWthAA6K28kQQGBGAgzAPDArd1UOm5qUD3lc3ZNQuT8fn6TFvQBOYdyW5D8neeo8Y3KQWhiAg2B2EgQQWIAAA7Af1MpVlbMqd53msdZ%2BV86v3P9Q%2BaOGG1rgagel25N82WmDG%2F%2FNADQ%2BQJqHAAJnEmAAzkRz7n9Ujqpc1dquf9sGpHL%2BI%2BWVjRuA08bXg4Jek%2BSTH2l5m%2F9gANocF61CAIHzCTAA5zPaPqJyUuWmD3SSSyvnP1K%2BMEmLSes08V%2F6u25eqLa%2BK8nLk%2FzdJM9L8gUN%2FdzRoAhqUisIIIDAeQRaNAAVU1uK8ZVzKvdUDqpcVPvqt3oz%2FaX5s%2F5d%2BbNy%2FiPlcQ3fCLjd%2BO3XtdRy66b9dWNDCz93MQCPaMs%2FEECgLwItGoCKqS3E9tM2VM5pfZl%2FO1eevq4%2BVM5%2FVPnlBpPWaYP93v9mEisAj5K7FwggcAaBFg2AHLB%2FDjhlWLn%2BsvI3Gv7O4mnD%2Fb64CBiAyyTvDwggcAUCDMDF42zrOar2Jahcf1n5mM3nGK13QPsuJk4G4DLJ%2BwMCCFyBAANwsRjbQ26qexUq11%2BxtPhcgB6g9tBGBuCKkvdHBBDYIsAAjGsAHtr%2Ff2u8H3n5dUnqq3Y9JDRt3G2cGIBHZO4fCCBwFQIMwG6xtZdcVLm9cvyZ5Wk%2BBhjW%2FDAAZ8refyCAwCUEGIAxDUAt%2F1eOv2r5yY6%2F3tCLEztGOxmAq8refyKAwIYAAzCeAaivLFZuP7f8sY73BDhGYu3lnAzAudJ3AAIIJGEAxjMA9d3%2Fyu2Tync3%2FAzjXhJua%2B1kACZJ30EIrJ4AAzCWAXh%2Fksrpk8tHJXmfmwGHuh%2BAAZgsfwcisGoCDMBYBqByeeX0nUrdLdjinvatXVn30h4GYCf5OxiB1RJgAMYxAJXDr3rn%2F1kqf2yS37cKMMwqAANwltL9HQEELiXAAIxjACqHVy6%2FUPnrHT0lsJcr8WO1kwG40BTwJgRWR4ABGMMA1FP%2FKofvVX7HKsAQqwAMwF7TwJsRWA0BBmAMA1C5e%2B%2FyZ3wtkAHYW0UqQACBXggwAP0bgPraX%2BXuWcrzfBTQvQmwAjDLVFAJAsMTYAD6NgC19F85e9by0iS3%2BjigWyPAAMw6HVSGwLAEGIB%2BDcBtSSpXL1JeleQuJqBLE8AALDIlVIrAcAQYgD4NwN1J%2FtOSanx8kt9K8gAT0J0JYACWnBnqRmAcAgxAfwagcvJvJ6kcvWippwm9hwFgABZVmcoRQOBYBBiA%2FgzA9VOe9DeXoD7bNwMYgLnEpB4EEGiKAAPQlwGox%2FxWTj5o%2BXImoCsT4COAg04PJ0OgWwIMQD8GoJL%2FVxxLaX8uSS09POgjgebNAANwrFnivAj0RYABaN8AVM59b5LKwUctn5ikdhyqRw4ea5tb5z2fPQNw1Gni5Ah0Q4ABOD%2BeHjPnfCDJ7yap3NtE%2BcgkP5vkdiagWRPEADQxVTQCgeYJMADtGoDKsT%2BXpHJuc%2BU77RjIADSnSg1CAIFdCDAAbRqA2oivcmzTpbYgrH2Ij7lE4tyX87cC0PS00TgEmiHAAFweP4%2BdUyqnPr8ZhZzTkGcneYePBJoyQQzAOaL13wgg8BABBqAdA1BL%2FpVLK6d2Va5J8qLNpkG2Dz6%2BoBiArqaPxiJwNAIMwPHjdeXM2nCvcmjl0m5LbU34kiQ3JrnHRwNHWxVgALqdQhqOwEEJMADHMwCVIytXVs5cfFvfQ6rqyUl%2BJEltXOBZAocXGANwSLU7FwL9EmAADh%2BfKydWbqwcWbly2PL0JK%2Fe3Ch4vxWBg60IMADDTikdQ2BWAgzA4QxA5cC6wa9yYuXG1ZRPS%2FI9Sa718cBBTAADsJqppaMI7EWAAVjWAJwu81fuqxxYuXDVpZzPNyV562YfATcNzi9ABmDVU0znEZhMgAGYP%2F5WTrtlk%2BMq163qan%2By8jaff7wwyWuT1MYHtTxyt48K9l4lYAB2UaFjEVgvAQZgfwNQOatyV%2BWwymWV04b%2BbH%2BJ6VJ3QT7nZN%2Fjr0zysiS%2FnORdm48Myk3dtnFVBbrunGzlp8UVDAZgCYWqE4HxCLRoACqmthLfqx2Vcy7NQfW3yk2VoypXVc6q3DXUnfwtSv1jkvzxJM9o6KeMybF3jto%2BPwPQonq1CYH2CLRoACqmthTjK%2BdU7lEQuIxAOcPtBHzs1wzAZcPkDwggcAUCLRqAiqkKAl0QYAC6GCaNRACBKxBgAK4AxZ8QmEqAAZhKynEIINAaAQagtRHRnq4IMABdDZfGIoDAJQQYgEtg%2BCcCuxJgAHYl5ngEEGiFAAPQykhoR5cEGIAuh02jEUAgCQNABgjsQYAB2AOetyKAwFEJMABHxe%2FkvRNgAHofQe1HYL0EGID1jr2ez0CAAZgBoioQQOAoBBiAo2B30lEIMACjjKR%2BILA%2BAgzA%2BsZcj2ckwADMCFNVCCBwUAIMwEFxO9loBBiA0UZUfxBYDwEGYD1jracLEGAAFoCqSgQQOAgBBuAgmJ1kVAIMwKgjq18IjE%2BAARh%2FjPVwQQIMwIJwVY0AAosSYAAWxavy0QkwAKOPsP4hMC4BBmDcsdWzAxBgAA4A2SkQQGARAgzAIlhVuhYCDMBaRlo%2FERiPAAMw3pjq0QEJMAAHhO1UCCAwKwEGYFacKlsbAQZgbSOuvwiMQ4ABGGcs9eQIBBiAI0B3SgQQmIUAAzALRpWslQADsNaR128E%2BifAAPQ%2FhnpwRAIMwBHhOzUCCOxFgAHYC583r50AA7B2Beg%2FAv0SYAD6HTstb4AAA9DAIGgCAghciAADcCFs3oTAwwQYAEpAAIFeCTAAvY6cdjdBgAFoYhg0AgEELkCAAbgANG9B4JQAA3BKwm8EEOiNAAPQ24hpb1MEGICmhkNjEEBgBwIMwA6wHIrANgEGYJuI1wgg0AsBBqCXkdLOJgkwAE0Oi0YhgMAEAgzABEgOQeAsAgzAWWT8HQEEWifAALQ%2BQtrXNAEGoOnh0TgEELgKAQbgKnD8FwLnEWAAziPk%2FxFAoFUCDECrI6NdXRBgALoYJo1EAIErEGAArgDFnxCYSoABmErKcQgg0BoBBqC1EdGerggwAF0Nl8YigMAlBBiAS2D4JwK7EmAAdiXmeAQQaIUAA9DKSGhHlwQYgC6HTaMRQCAJA0AGCOxBgAHYA563IoDAUQkwAEfF7%2BS9E2AAeh9B7UdgvQQYgPWOvZ7PQIABmAGiKhBA4CgEGICjYHfSUQgwAKOMpH4gsD4CDMD6xlyPZyTAAMwIU1UIIHBQAgzAQXE72WgEGIDRRlR%2FEFgPAQZgPWOtpwsQYAAWgKpKBBA4CAEG4CCYnWRUAgzAqCOrXwiMT4ABGH%2BM9XBBAgzAgnBVjQACixJgABbFq%2FLRCTAAo4%2Bw%2FiEwLgEGYNyx1bMDEGAADgDZKRBAYBECDMAiWFW6FgIMwFpGWj8RGI8AAzDemOrRAQkwAAeE7VQIIDArAQZgVpwqWxsBBmBtI66%2FCIxDgAEYZyz15AgEGIAjQHdKBBCYhQADMAtGlayVAAOw1pHXbwT6J8AA9D%2BGenBEAgzAEeE7NQII7EWAAdgLnzevnQADsHYF6D8C%2FRJgAPodOy1vgAAD0MAgaAICCFyIAANwIWzehMDDBBgASkAAgV4JMAC9jpx2N0GAAWhiGDQCAQQuQIABuAA0b0HglAADcErCbwQQ6I0AA9DbiGlvUwQYgKaGQ2MQQGAHAgzADrAcisA2AQZgm4jXCCDQCwEGoJeR0s4mCTAATQ6LRiGAwAQCDMAESA5B4CwCDMBZZPwdAQRaJ8AAtD5C2tc0AQag6eHROAQQuAoBBuAqcPwXAucRYADOI%2BT%2FEUCgVQIMQKsjo11dEGAAuhgmjUQAgSsQYACuAMWfEJhKgAGYSspxCCDQGgEGoLUR0Z6uCDAAXQ2XxiKAwCUEGIBLYPgnArsSYAB2JeZ4BBBohQAD0MpIaEeXBBiALodNoxFAIAkDQAYI7EGAAdgDnrcigMBRCTAAR8Xv5L0TYAB6H0HtR2C9BBiA9Y69ns9AgAGYAaIqEEDgKAQYgKNgd9JRCDAAo4ykfiCwPgIMwPrGXI9nJMAAzAhTVQggcFACDMBBcTvZaAQYgNFGVH8QWA8BBmA9Y62nCxBgABaAqkoEEDgIAQbgIJidZFQCDMCoI6tfCIxPgAEYf4z1cEECDMCCcFWNAAKLEmAAFsWr8tEJMACjj7D%2BITAuAQZg3LHVswMQYAAOANkpEEBgEQIMwCJYVboWAgzAWkZaPxEYjwADMN6Y6tEBCTAAB4TtVAggMCsBBmBWnCpbGwEGYG0jrr8IjEOAARhnLPXkCARuTvKhxn5qUisIIIDAeQRaNAAVUxUEuiDw3saSf5mRV3RBTiMRQODYBCpWtHYBUzFVQaALAtc2OIFe3wU5jUQAgWMTqFjRmgGomKog0AWBtzU4gd7dBTmNRACBYxOoWNGaAaiYqiDQBYE3NDiB6sbEp3dBTyMRQOBYBCpGtHgTc8VUBYEuCPxCgwbgniTf2gU9jUQAgWMRqBhRsaK1FYCKqQoCXRB4eYMTqCb07Ume1gVBjUQAgUMTqNhQMaK15F%2FtqZiqINAFgRc16qIfTPLaLghqJAIIHJpAxYaKEa0ZgFqRqJiqINAFgc9J0uJeADWx703y1V1Q1EgEEDgUgYoJFRtaS%2F7VnoqlFVMVBLog8LGN3khzOrlvPdkX4FO6IKmRCCCwNIGKBRUTTuNDa7%2FrpsSKqQoC3RBodQWgJnct89VnfS%2FuhqaGIoDAEgQqBlQsaHHp%2F9SI2AVwiZFX56IE6vO0UwG3%2BruW%2FF6X5BMWJaFyBBBojUDN%2BZr7rS77Xxoz3bfUmnq051wCL0xyVwcmoJx%2FLbG9JMmzzu2VAxBAoGcCNcdrrtecb%2Fmq%2F9QAVAytWKog0BWBJzf%2BudrpBDv9fV%2BSG5Ncn%2BRNSV6V5Mf9YEAD3Wug5nLN6ZrbNcdrrp%2FO%2B9Z%2F170JFUsVBLoj8BsdTbTWA4H29RO0jZWxmksDFUMVBLok8M2N7gcw1%2BRUj0BPAzSwlAbq%2B%2F8VQxUEuiRQ%2B2rfZBWgm%2BXGpQKZeiVJGthdAxU7Pb%2Bky9Sn0acE3sUAMAA0QAM0sLMGKnYqCHRN4GVJHjD5d578rph2v2LCDLNRNFAxs2KngkDXBD5rc%2BftKBNTPyQZGqCBpTVQ31Z4TteRX%2BMR2BC41gqAFQAaoAEamKyBipkKAkMQ%2BCuNPxtgaTevfleMNEADUzVQmxRVzFQQGIbA%2F%2BL%2BJ7v%2FqYHCcZIKDYyngYqVCgJDEfjshh8RLIiOF0SNqTHtUQP14J%2BKlQoCwxH4hU723%2B4xcGizhEcDfWugnk1QMVJBYEgC9dztlh8TLID2HUCNn%2FHrWQMVGytGKggMS%2BDHOnsYR88BRdslRBroQwP1gKKKjQoCQxN4in0B3AzohlAaoIFHaaC%2B91%2BxUUFgeALfnuROAeBRAcCVWh9XasbJOM2tgYqFFRMVBFZB4Jokv5LkXiaACaABGlixBioGViysmKggsBoCT0zyeyue%2BHNfRajPlSkN9KeBioEVCxUEVkfgmUluYAJcAdIADaxQA%2FW5f8VABYHVEvgC2wQL%2FisM%2Fq7W%2B7tan3PMbj1Z%2Bq%2FYpyCwegLflOQ2SYARoAEaWIEGbj%2B56KmYpyCAwIbAv0ty1wom%2F5xXEepa91Wk8e9v%2FO8%2BWfavWKcggMAlBB6X5C1J7mcCXAXSAA0MqIGKbW9NUrFOQQCBLQK1EcabrQQI%2FgMGf1fr%2FV2tzzlmdeVfsc1mP1tB30sELiVQ7viV7glgApgAGhhEA%2FWZf8U0V%2F6XRnr%2FRuAqBL7RtwMkgEESwJxXkurqayWh7vavWKYggMCOBP7yZp%2BAD0oEzAAN0EBHGqiYVd%2FzrximIIDABQk8a7Nj4D0dTX5XaX1dpRkv4zWnBipW1Q5%2FFbsUBBDYk8CTTpz0G5LcwQS4CqQBGmhYAxWjKlZVzFIQQGAmAo9J8pLNsprVAFdsc16xqYue9tVAxaRa8q8YVbFKQQCBBQjU12h%2B%2BOTGmpuTPNDwlcC%2BAcX7JSUaaF8DFYMqFlVM8hW%2FBQK%2BKhG4EoFPSvIzm8knULYfKI2RMRpNA5X4KwZVLFIQQOAIBD49ya%2F6yqDPha0G0cCBNHDLJuZU7FEQQKABAp%2Bb5HeS3GQ7YYngQIlgtCta%2FTl7laa28a3YUjGmYo2CAAINEnhGkm9L8tubCft%2ByYAhoAEauIAGKnZU0q9YUjGlYouCAAKdEHhqkhdvlutqIteWnK5yMKABGjhLAxUjKlbUx4oVOyqGKAgg0DmBJ5w8bfD5SV6d5PrNJL9hs7eAnQYlhLMSgr%2BPqY2a8%2FWd%2FYoBlfArJlRseF6SihUKAggMTODxJ3fw1k08L0jyXUl%2BOskvJvm1JG9L8s4kv5%2FkOj8Y0EC3Gqg5XHO55nTN7ZrjNddrztfcrxhQsUBBAAEEEEAAAQQQQAABBBBAAAEEEEAAAQQQQAABBBBAAAEEEEAAAQQQQAABBBBAAAEEEEAAAQQQQAABBBBAAAEEEEAAAQQQQAABBBBAAAEEEDgigf8PT9Qgx1NaPZ0AAAAASUVORK5CYII%3D%3B%22%20vertex%3D%221%22%20parent%3D%221%22%3E%3CmxGeometry%20x%3D%22485.5%22%20y%3D%22160%22%20width%3D%2216%22%20height%3D%2216%22%20as%3D%22geometry%22%2F%3E%3C%2FmxCell%3E%3C%2Froot%3E%3C%2FmxGraphModel%3E&lt;/span&gt;Imprimir" style="strokeWidth=1;shadow=0;dashed=0;align=center;html=1;shape=mxgraph.mockup.buttons.button;strokeColor=#9673a6;mainText=;buttonStyle=round;fontSize=17;fontStyle=0;fillColor=none;whiteSpace=wrap;rounded=0;labelBackgroundColor=none;" vertex="1" parent="GTaBL3b2TxJOTED7LHsO-2">
          <mxGeometry x="426.5" y="170" width="143.5" height="20" as="geometry" />
        </mxCell>
        <mxCell id="GTaBL3b2TxJOTED7LHsO-38" value="" style="shape=image;verticalLabelPosition=bottom;labelBackgroundColor=default;verticalAlign=top;aspect=fixed;imageAspect=0;image=data:image/png,iVBORw0KGgoAAAANSUhEUgAAAgAAAAIACAYAAAD0eNT6AAAAAXNSR0IArs4c6QAAIABJREFUeAHt3Qusbdtd1/HfbUsp0NJSoUEp0FYNlUeDFRM1EJCgIC0EUzHYAo0mKiE8TbCkgpFHFRArkAAGtFYJxlBbHgIxNq0U1FLbUuRRU3uL5UJv6X0/2/ts3f971749d52zz55rrznXGmPMz0h29ln7zDXmGN/xG///b44115iJggACCCCAAAIIIIAAAggggAACCCCAAAIIIIAAAggggAACCCCAAAIIIIAAAggggAACCCCAAAIIIIAAAggggAACCCCAAAIIIIAAAggggAACCCBwbAKPT/LpSV6Q5LuS/HSSX0zya0neluSdSX4/yXV+MKCBbjVQc7jmcs3pmts1x2uu15yvuV8xoGKBggACAxN4QpLnJ3l1kuuT3JTkhiR3JPlgkg/5wYAGVqOBmvM19ysGVCyomFCx4XlJKlYoCCDQOYGnJnlxkl/dTPLbBfjVBHiGjqm9iAYqRpQhqJhRsaNiiIIAAp0QeEaSbztZ3vvtzUR+v6Qv6dMADVxAAxU7ygxULKmYUrFFQQCBBgl8bpLf2UzY+y8w2S9yteA9rjJpYB0aqJhSZqBiTMUaBQEEGiBQN/HUct0tkr6rPBqggQNooGJNxZyKPQoCCByBwCedTMCfSXLzASa8q7x1XOUZZ+O8iwYq9lQMqlikIIDAAQg8JckPbxL/A5K/Kz4aoIEjaqBiUBmBikkVmxQEEFiAwGOSvCTJjUnuOeKE3+UKwbGuKGlgHRqomFSxqWJUxSoFAQRmIvCkJG/YfG9XQF1HQDXOxrlHDdTeAhWrKmYpCCCwJ4FnJXmXq37LvFZ9aKATDdRqwO8lqdilIIDABQl8wWanLjv1uRrs8WpQm9er24pZtctgxTAFAQR2JPAN7vB3xdfJFZ9Ev95Ef97Y11cGK5YpCCAwgcDjkrzC9/olf8mfBgbRwK2bmFaxTUEAgTMI1Ndo3pTkzkEm/nlXB/7flSMNrEMDFdMqtvmq4BnB35/XTaDc8ZuT3Cf5u/KjARoYUAMV2yrGWQlYd67T+ysQeKUrf0F/wKDvCn8dV/hTx/muk4cKVaxTEEBgQ+Abk9TnZFMnkeOwogEa6FUDt53c4FwxT0Fg9QTqazL28xfMew3m2k27F9FAfTvAVwRXn/7WDeCZm+/KXmQCeY/ASwM00LMGauvgioEKAqsj8MTNDn89T2Btl4BogAb20UDtclqxUEFgNQSuOVn++pUk9/rc330PNEADK9ZAxcCKhRUTFQRWQeDb3fEv6K846O9zxei946041B4BFRMVBIYnUBth1GdfAhkGNEADNPCwBiom2iRo+PSngz9msx/mhwGkARp4lAZqk6CKjQoCwxL4FF/5e9Skd/XjCpgGaOBUA/V16IqRCgJDEvj5JA9y/kwADdAADVymgYqNFSMVBIYj8Nmu/i+b8KfO329XgTRAA6WBWgWoWKkgMBSBehKWIIcBDdAADVxdAxUrFQSGIfBXXP0zPwwgDdDAJA3UKkDFTAWBIQi808SfNPFdGV39yggffNaigYqZCgLdE/gs+/1L/gwgDdDAThq4Iclzuo/+OrB6At+b5H6Tf6fJv5arHP10RU8DV9ZAxcyKnQoCXROoh12Y5BjQAA3QwG4aqNipINAtgacnuYkBYIBogAZoYGcNVOysGKog0CWBbzp5yMU9Jv7OE9+V0m5XSnjhNaIGKnZWDFUQ6JLAWyV/yZ8GaIAGLqyBiqEKAt0RePKJe72lo4lfD+OoJ3Jdn6Q24nhVkh/3gwENdK+Bmss1p2tu1xyvud7LikHF0IqlCgJdEXhhkrs6mGi1/3ZNspckeVZXhDUWAQR2JVBzvOZ6zfkenktSMbRiqYJAVwRe20HyvzfJ65J8QldkNRYBBPYlUHO+5n7FgNZXAyqWKgh0RaC2s2x1YpXzvzXJi7siqrEIIDA3gYoBFQtaXg2oWKog0A2Bj2388/9a/vPc7W7kpKEILEqgYkHFhFYvWKptFVMVBLog8DkNP/ynlvy+uguKGokAAociUDGh1Y8DagWgYqqCQBcEXtTo9/9rmc/naV1ISCMRODiBig0tfhRQ+wFUTFUQ6ILAyxtdTrstydO6IKiRCCBwaAIVGypGtPhRQMVUBYEuCPxCg5OoXPS3dkFPIxFA4FgEKka0uHtpxVQFgS4IvKFBA1Cfo9lXuwv5aCQCRyNQMaLFbzBVTFUQ6ILA2xo0AO/ugpxGIoDAsQlUrGjtY4CKqQoCXRC4tsEJ9PouyGkkAggcm0DFitYMQMVUBYEuCLy3wQn0ii7IaSQCCBybQMWK1gxAxVQFgS4ItPgZ2vd1QU4jEUDg2AQqVrRmACqmKgh0QaDFXbUYgC6ko5EIHJ1AiwagYqqCQBcEGIAuhkkjEUDgCgQYgCtA8ScEphJgAKaSchwCCLRGgAFobUS0pysCDEBXw6WxCCBwCQEG4BIY/onArgQYgF2JOR4BBFohwAC0MhLa0SUBBqDLYdNoBBBIwgCQAQJ7EGAA9oDnrQggcFQCDMBR8Tt57wQYgN5HUPsRWC8BBmC9Y6/nMxBgAGaAqAoEEDgKAQbgKNiddBQCDMAoI6kfCKyPAAOwvjHX4xkJMAAzwlQVAggclAADcFDcTjYaAQZgtBHVHwTWQ4ABWM9Y6+kCBBiABaCqEgEEDkKAATgIZicZlQADMOrI6hcC4xNgAMYfYz1ckAADsCBcVSOAwKIEGIBF8ap8dAIMwOgjrH8IjEuAARh3bPXsAAQYgANAdgoEEFiEAAOwCFaVroUAA7CWkdZPBMYjwACMN6Z6dEACDMABYTsVAgjMSoABmBWnytZGgAFY24jrLwLjEGAAxhlLPTkCAQbgCNCdEgEEZiHAAMyCUSVrJcAArHXk9RuB/gkwAP2PoR4ckQADcET4To0AAnsRYAD2wufNayfAAKxdAfqPQL8EGIB+x07LGyDAADQwCJqAAAIXIsAAXAibNyHwMAEGgBIQQKBXAgxAryOn3U0QYACaGAaNQACBCxBgAC4AzVsQOCXAAJyS8BsBBHojwAD0NmLa2xQBBqCp4dAYBBDYgQADsAMshyKwTYAB2CbiNQII9EKAAehlpFbUzo9P8peS/O0k/yjJy5O8IslrkrwuyX9v6Of+JB9q7OcPG+LT0lhpS1tzx3gcfzwqVrQWvyqmtqSNyjmVeyoHVS6qnFS5qXJU5SplDwKPTfL5SX4iyTuS3Jzkxs3PBxoUZ2uTRXvaC2DGxJjQwNgaqNx0mqcqZ1XuqhxWuaxymnIVAh+V5Ms3rqrg3ZTkg5J9c05cEBs7iBlf40sD82mgcljlsspptWJQOa5ynZLkqUm+NskbktTn5rdJ+BI+DdAADdDAoBqoHFe5rnJe5b7Kgasrz03yxo0runvQgeai53PRWGJJAzQwmgYq99XKQOXCyonDl2cm+aWNAxptMPVHgKIBGqABGriIBmpVoHJj5cjhSt0V+a83id/n+ibIRSaI99ANDdDAyBqo3FhGoHLlEN8k+Ogk371Z5rjPUr/P9WiABmiABmjgqhqoXFkfDVTurBzaXbkmydcleV+S9xvsqw72yI5W31yx0QAN0MDFNFC5s3Jo5dLKqV2Uj9lszHOHxC/x0wAN0AAN0MBeGqhc+voklVubLp+a5Nok9xrwvQacY76YY8YNNxqggRE1UDm1cmvl2CbL5ya5weY9Ej/zRwM0QAM0MLsG6ibByrGf15oDqM8o6u7FEZ2XPhlXGqABGqCBVjRw6+a+gKP7gNrfuPY6toOfydHK5NAOWqQBGhhdA7cn+cljPmPgyZsdjO5y5W/lgwZogAZogAYOqoHaSfDXk1QuPmj5iCS/efIIxBYfezu689M/Vzc0QAM0QAOlgcrBv5WkcvLBys/4fv9BnZ7JbrLTAA3QAA1cSQP1GOJXHSr7v8Rn/pK/pT4aoAEaoIFmNFD3BHz70ibgS5LUHYhXciH+hgsN0AAN0AANHEcDlZv/2lIm4NOS3CT5Mz80QAM0QAM00KQG6hkClatnLR+X5DoD3uSAc9vHcdu4404DNNCiBipXV86epdR3/d+UxNP8iL1FsWsTXdIADdDAhzVQubpyduXuvcu/TOK7/h+GS2hY0AAN0AANtKyBytmVu/cqT7fFr2V/H/3QAA3QAA10p4Hanr9y+IXLa5I8YOC7G/iWnam2uXKiARqggeU1ULm7cviFyme6+pf4mT8aoAEaoIFuNVCrAJXLdy7/w6B3O+jc9fLuGmOMaYAGetBA5fKdyufb8EfyZwBpgAZogAa610BtEFQ5fXJ5h0HvftB7cKba6AqKBmiABpbXQOX0SeWrktS+wgYFAxqgARqgARroXwOV0yu3X7U8Lsl7JH/mhwZogAZogAaG0kDl9srxZ5Yv8qS/oQacc+/fuRtDY0gDNDCHBm5LUjn+zPJTHB8DQAM0QAM0QANDaqBy/JnlfQZ9yEGfwz2qw1UIDdAADfStgcrxVyzP9bhfyZ8BpAEaoAEaGFYDNyWpXH9Z+cEkHzTwww485963czd+xo8GaGBfDVSOr1x/WXm35C/50wAN0AAN0MDQGqhc/6jyjCQ3djTo5WJqKaP2Of6DJG9O8no/GNAADdAADRxAA5VzKvdUDqpc1NPqeeX6yvmPlG9Lcl8HBqAg11cZfiTJX0jymEd64B8IIIAAAggclkDloMpFlZNqy90ejEDl+sr5j5Tf6iD5V6N/PcmfeKTV/oEAAggggEAbBCo3VY7q4WK6cv5D5fFJbm7YAJSjujPJ15822G8EEEAAAQQaJVC5qnJWy6sBlfMr9+czTpLrDQ0bgPp85ZmNDrRmIYAAAgggsE2gclblrn3v2l/q/ZXzK/fnBRu3stSJ9qn33iRftk3WawQQQAABBBonULmrctg+OXCp99YKReX+fE+jDXwgyasbH2DNQwABBBBA4CwClcMqly2VyPept3J/frnRxtXyyceeRdXfEUAAAQQQaJxA5bBWPwqo3J+3N2gA7jhp199sfGA1DwEEEEAAgfMIVC6rnLbP1foS763cn+sabFhtrvDR51H1/wgggAACCDROoHJZ5bQlkvg+dVbuT4tPAHxj4wOqeQgggAACCEwlUDltn2S9xHsfejJgi1sA/9hUqo5DAAEEEECgcQKV05ZI4vvUWbm/uRsUavOEb2l8MDUPAQQQQACBqQQqp7W2MVDdnNjcZxMfSPK3plJ1HAIIIIAAAo0TqJxWuW2fK/a531v3JTRnAO5J8lWND6bmIYAAAgggMJVA5bTKbXMn8X3qYwCmjp7jEEAAAQQQuCABBmCi+7ECcEGFeRsCCCCAQJMEGAAGoElhahQCCCCAwLIEGAAGYFmFqR0BBBBAoEkCDAAD0KQwNQoBBBBAYFkCDAADsKzC1I4AAggg0CQBBoABaFKYGoUAAgggsCwBBoABWFZhakcAAQQQaJIAA8AANClMjUIAAQQQWJYAA8AALKswtSOAAAIINEmAAWAAmhSmRiGAAAIILEuAAWAAllWY2hFAAAEEmiTAADAATQpToxBAAAEEliXAADAAyypM7QgggAACTRJgABiAJoWpUQgggAACyxJgABiAZRWmdgQQWAWBxyZ5Quc/j1nFSH24kwwAA/BhNfgXAgggcA6Ba5J8YZJvTfJTSd6S5I+S3DzAzy1JbkryniRvTvKPkzw3yajGgAFgAM6Z7v4bAQQQSD4yydcn+cMklSgfnBg7P9TxcQ9sDMGNSb43yVMGEwIDMFGc9yQpWAoCCCCwJgKV9F6WpJLg3RPjZc9J/6y237sxPj+Uh83QCBpgACYKmgEYQe76gAACuxD49M1yeCW/sxLj2v7+gSTvSvIZu4Bs9FgGYKKwGYBGFaxZCCCwCIEv3Xymv7YEP7W/9THIVy9C/nCVMgAMwOHU5kwIINAFgX+Y5NaJsXFqwhzxuDIBL+hiRK/cSAZgositAFxZQP6KAAJjEfjOJLdNjIsjJvVd+1Qm4Es6lQADMFHoDECnCtdsBBCYTODZrvwvdK9DfXWw7pforTAADEBvmtVeBBBYgEB91/13J8bDXa+S13D8bywwJktXyQBMFLwVgKWlqH4EEDgmgZcmuXNiPFxDQt+1j7cn+dpjDuAFzs0ATBQ8A3ABdXkLAgh0QeBT3fF/oaX/bZNwQ5IndjHiDzeSAWAAOpKrpiKAwBIE/lmS2vVuO6F5vRuTu5K8eIkBWqhOBmCi6K0ALKRA1SKAwNEJXDcxDjIE5xuCNx59NKc3gAGYKHwGYLqoHIkAAv0Q+KzNfveS+/nJfQqjeihSL88MYAAYgH4ilZYigMDsBL7/5Kl3H5wYB6ckwLUf8/4kL5p9lJapkAGYKHwrAMsIUK0IIHBcAv9lYgxce2Lfpf8/cNwhnXx2BmCi+BmAyZpyIAIIdETg7RNj4C4JcO3H/mwn488ATBQ/A9CJojUTAQR2IvBHE2Pg2pP6Lv3vZVMgBmCi+BmAnWKKgxFAoBMCtY3tLsnNsefz+oNOxp4BmCh+BqATRWsmAgjsRMAKwPkJfVfT8392GoHjHcwAMADHU58zI4DA0Qm8ZWIM3DUJrvn41x19VKc1gAGYKH4rANME5SgEEOiLwL+dGAPXnNB37Xsx7aEwABPFzwD0IGdtRACBXQl8Q5L7JsbBXRPhGo8vlt+86yAc6XgGYKLwGYAjKdRpEUBgUQJfZCfAWW+CrJsqn7HoiM1XOQPAAMynJjUhgEB3BD4uyS0T4+Aar+h37fO7O1IAAzBR+FYAOlK1piKAwE4EftTHALOsAjyY5J/vRP64BzMADMBxFejsCCBwdAJPswowiwGolZRPPPpoTm8AA8AATFeLIxFAYFgC/8oqwF4moFaJf7AzdTAADEBnktVcBBBYgkBduboX4OKbAt1wYgCeuMTALFgnA8AALCgvVSOAQE8E/kmS2yfGxF1vjhv5+FuTfEVPA71pKwMwUexuAuxQ3ZqMAAI7E/j3Se6aGBdHTupT+3ZHku/dmXIbb2AAJgqdAWhDsFqBAALLEnhMktrK9gMTY+PURDnicWWUfmnZ4Vi0dgZgosgZgEV1qHIEEGiIwBOSvClJXd2OmLjn6NNtSV6R5LENjduuTWEAJgqcAdhVWo5HAIGeCdRKwHecbGtbn2/PkTBHqqOSf22h3HthACaKmwHoXerajwACFyHwGUmuTXLnxFg5UqLf7ksl/rcm+bMXAdngexiAiaJmABpUryYhgMBBCHxEkhcn+d9Jbk5SO95tJ8dRX9+/eVbCO5L81YPQPtxJGICJQmYADidKZ0IAgXYJPDPJv0hSe97XvgFlCG7cfH2wborr+ae+AlkP86mf+ujj7SebI700yZ9sdzj2ahkDwADsJSBvRgCBdRN4UpL6mOBLNt+Fr+/D9/rzxUmek+Tjk1yzgmFlABiAFchcFxFAAAEEtgkwAAzAtia8RgABBBBYAQEGgAFYgcx1EQEEEEBgmwADwABsa8JrBBBAAIEVEGAAGIAVyFwXEUAAAQS2CTAADMC2JrxGAAEEEFgBAQaAAViBzHURAQQQQGCbAAPAAGxrwmsEEEAAgRUQYAAYgBXIXBcRQAABBLYJMAAMwLYmvEYAAQQQWAEBBoABWIHMdREBBBBAYJsAA8AAbGvCawQQQACBFRBgABiAFchcFxFAAAEEtgkwAAzAtia8RgABBBBYAQEGgAFYgcx1EQEEEEBgmwADwABsa8JrBBBAAIEVEGAAGIAVyFwXEUAAAQS2CTAADMC2JrxGAAEEEFgBAQaAAViBzHURAQQQQGCbAAPAAGxrwmsEEEAAgRUQYAAYgBXIXBcRQAABBLYJMAAMwLYmvEYAAQQQWAEBBoABWIHMdREBBBBAYJsAA8AAbGvCawQQQACBFRBgABiAFchcFxFAAAEEtgkwAAzAtia8RgABBBBYAQEGgAFYgcx1EQEEEEBgmwADwABsa8JrBBBAAIEVEGAAGIAVyFwXEUAAAQS2CTAADMC2JrxGAAEEEFgBAQaAAViBzHURAQQQQGCbAAPAAGxrwmsEEEAAgRUQYAAYgBXIXBcRQAABBLYJMAAMwLYmvEYAAQQQWAEBBoABWIHMdREBBBBAYJsAA8AAbGvCawQQQACBFRBgABiAFchcFxFAAAEEtgkwAAzAtia8RgABBBBYAQEGgAFYgcx1EQEEEEBgmwADwABsa8JrBBBAAIEVEGAAGIAVyFwXEUAAAQS2CTAADMC2JrxGAAEEEFgBAQaAAViBzHURAQQQQGCbAAPAAGxrwmsEEEAAgRUQYAAYgBXIXBcRQAABBLYJMAAMwLYmvEYAAQQQWAEBBoABWIHMdREBBBBAYJsAA8AAbGvCawQQQACBFRBgABiAFchcFxFAAAEEtgkwAAzAtia8RgABBBBYAQEGgAFYgcx1EQEEEEBgmwADwABsa8JrBBBAAIEVEGAAGIAVyFwXEUAAAQS2CTAADMC2JrxGAAEEEFgBAQaAAViBzHURAQQQQGCbAAPAAGxrwmsEEEAAgRUQYAAYgBXIXBcRQAABBLYJMAAMwLYmjv76cUn+dJLnJ/n7SV6a5OVJXpnk55P81ySv9YMBDXSrgZrDNZdrTtfcrjlec73mfM39igHK8gQYAAZgeZWdc4Y/tQkA//MkCLw3ya1JbkpyZ5IPThyfDzkuGASDjufBg0nu2Mz9igEVCyomlDmoGKHMT4ABmDhh7klSsJT9CVyT5M8n+aEkf7CZ8PdPHAdJTpKjgXVpoGJDXRBUrKiYUbGjYoiyPwEGYGLiYQD2E9vjk3xxkv+Q5IbNhHZ1v65ALnEb7301UDGjzEDFkIolFVMqtigXI8AAMAAXU87Ed31Skv+4mbS3TGS9b5DwfomGBtahgYopZQgqxlSsUXYjwABMTEpWAHYT1pOT/PBmcj4wkbGgvY6gbZyN89waqBhTRqBiTsUeZRoBBmBicmIApgmqluNekuTGJMVs7omuPkxpgAbO0kDFnIo9FYN8NHB+zGYAJiYpBuDqYqqbcr4myfVJ7prI9KxJ7O8CPA3QwD4aqBhUsahikhsGz47dDMDEZMUAnC2iL0zyziS3TWS5z8T2XomBBmhgqgYqJlVsqhilXE6AAZiYtBiAy8XzmCQ/IvH7mGPiHJoatB0nwc+tgTICFasqZikfJsAATAxeDMCHRVP/elKSN2w265l7sqpPAqABGphbA7WxWMWsil3KwwQYAAZg57nwrCT/L8m9E9nNPZHVJznQAA1cRAMVsyp2VQxTHt7cri5uL8JyqffUVzvT2nfGrQA8PF3qs7S6y9YmPm1NmqUmo3qN82gaON1MyH0BDMBk58MAJN+y2ad/tICgP5IcDaxPA3VfQMW0NRcfAUxc/lizAfiIJD/lZr/JZlEyWV8yMeZ9jvntm9hWMW6NhQFgAM7V/Wt8t1/ynzhPJMI+E+Gax+3uJBXj1lgYgImBba0rAPUoTt/vF9TXnCD0fXz910pAxbq1FQaAAThT81/a4M2YgvH4wdgYG+NjaKAudCrmrakwAAzAFfX+7M3DNY4xEZ1TAqABGjiGBuqBQhX71lIYAAbgMq1/XJLrJnI5xiR1TsmBBmhgKQ1U7KsYuIbCAExMdGu5B+CxSX795POw+yZyWWoSqleApwEaOIYGKva9KUnFwtELAzAx0a3FAPwb2/u643/inDhGcHZOpuAQGqhtgysWjl4YgInBbg0G4IU2+pH8J86HQwRh55Dsj6mBW5NUTBy5MAATA97oBuAjN8/PPuaEc24BnwZooCUNXJ+kYuOohQFgAB7Sdn0H9q6JLFqaoNoiYdAADSylgYqJI+8PwABMTHojrwA8ZfOAn6UmkXoFaBqggV41UA8/qxg5YmEAGID8aJIyOL1OUO02djRAA0tpoGJjxcgRCwMwMfGNugLwyTb8YXwmzoGlAqx6Je/WNVAbBFWsHK0wABOD36gG4GeTPDCRQeuTVPskEhqggSU0UDGyYuVohQGYmPxGNADPcfXv6n+i/pcIquqUrHvSQK0CVMwcqTAAEwPgiAbgjRP73tMk1VZJhQZoYCkNVMwcqTAAE5PgaAbgU9357+p/ovaXCqbqlah700B9I6Bi5yiFAZgYBEczAP/Anf8MwETt9xaktZexWEoDlQcqdo5SGICJQXA0A/CbE/u91ERSryBNAzTQowYqdo5SGICJiXAkA1CPurx5Yr97nKDaLLHQAA0spYGKnaM8LpgBmJgIRzIAX2PbX8v/E3W/VBBVrwTdqwZqe+CKoSMUBmBiIBzJALx+Yp97naDaLbnQAA0sqYGKoSMUBmBiMhzFANSTrW6Z2OclJ9Audd+2afMNJ4/n/L9J3uIHAxroXgM1l2tOVzyqOb5LTDj2sdXmEZ4SyABMFN4oBuBLk9w+sc/HnmTVzp9L8mVJnjCC3dYHBBC4jEDN7ZrjNdd7ik0VS3svDMDEZDiKAXjVxP4eM/nfl+S6JM/tfXZpPwII7ESg5nzN/YoBx4xBU85dsbT3wgBMFNooBqCW3KaI+1jH3Hny6M0fSvL43meW9iOAwIUI1NyvGFCx4FhxaMp5K5b2XhiAiSIbwQB8VOOf/9fngH+x9xml/QggMAuBigUt3xtQ9wFUTO25MAArMgAtP/ynDNZ39DyTtB0BBGYnUDGhYsOUK/JDHzPCw4EYgIniGmEF4CuT3D2xv4eeTG9P8tjZw4cKEUCgZwIVEyo2HDoeTTlfxdKKqT0XBmCiuEYwAC+b2Ncp4p/zmNpY49k9zyJtRwCBxQhUbKgYMWfMmauuiqk9FwZgorBGMACvmdjXuSbHlHruT/IDPc8gbUcAgcUJVIyoWDElphzymIqpPRcGYKKoRjAALe4AWJ+jufrvOYRoOwLLE6gYUbHikMl9yrn+2/JdX/QMDMBEUY1gAN46sa9ThD/XMdcvKm+VI4DAKAQqVswVd+aqp2Jqz4UBmCiqEQxAbb05l/DnqufXep492o4AAgcjULFirrgzVz0VU3suDMCtCdpOAAAWCklEQVREUY1gAN4zsa9zTY4p9fx0z7NH2xFA4GAEKlZMiSmHPKZias+FAZgoqhEMQD3H+pCTY8q5vr/n2aPtCCBwMAIVK6bElEMeUzG158IATBTVCAagxacAfl/Ps0fbEUDgYAQqVhwyuU85V8XUngsDMFFUDMAyk48B6Dl8aDsChyPAAMzPmgFgAI7qqhmA+Se1GhEYkQADMP+oMgAMAAMw/7xSIwIIzEyAAZgZaBIGgAFgAOafV2pEAIGZCTAAMwNlAKZ/ru0egOmsptw8c3qMjwDmn9RqRGBEAgzA/KNqBcAKgBWA+eeVGhFAYGYCDMDMQK0ATL+qtQIwndXp1f2U31YA5p/UakRgRAIMwPyjagXACoAVgPnnlRoRQGBmAgzAzECtAEy/qrUCMJ3VlCv/02OsAMw/qdWIwIgEGID5R9UKgBUAKwDzzys1IoDAzAQYgJmBWgGYflVrBWA6q9Or+ym/rQDMP6nViMCIBBiA+UfVCoAVACsA888rNSKAwMwEGICZgba8AtDak+vuT/J35ud/0Bo9DOiguJ0MAQRmJMAAzAhzU1XltMptU1ZrD3XMQ09YvLGxRlXn/+n8/A9aIwNwUNxOhgACMxJgAGaEuamqctqhEvvU81Tuz/sabNir5+d/0BoZgIPidjIEEJiRAAMwI8xNVZXTpibmQx1XuT/XN9iw987P/6A1MgAHxe1kCCAwIwEGYEaYm6oqpx0qsU89T+X+XNtgw25K8pnzj8HBamQADobaiRBAYGYCDMC8QCuXVU6bmpgPdVzl/rypwYY9mOQX5x2Dg9bGABwUt5MhgMCMBBiAGWFuclnltEMl9qnnqdyfn2iwYdWB9yf5ynnH4WC1MQAHQ+1ECCAwMwEGYD6glcMql01Nyoc8rnJ//l6S+xpt4J1JPmG+sThYTQzAwVA7EQIIzEyAAZgHaOWuymGHTOpTz1U5v3J/Pq/RzyeqIw+ctO9184zFQWthAA6K28kQQGBGAgzAPDArd1UOm5qUD3lc3ZNQuT8fn6TFvQBOYdyW5D8neeo8Y3KQWhiAg2B2EgQQWIAAA7Af1MpVlbMqd53msdZ+V86v3P9Q+aOGG1rgagel25N82WmDG//NADQ+QJqHAAJnEmAAzkRz7n9Ujqpc1dquf9sGpHL+I+WVjRuA08bXg4Jek+STH2l5m/9gANocF61CAIHzCTAA5zPaPqJyUuWmD3SSSyvnP1K+MEmLSes08V/6u25eqLa+K8nLk/zdJM9L8gUN/dzRoAhqUisIIIDAeQRaNAAVU1uK8ZVzKvdUDqpcVPvqt3oz/aX5s/5d+bNy/iPlcQ3fCLjd+O3XtdRy66b9dWNDCz93MQCPaMs/EECgLwItGoCKqS3E9tM2VM5pfZl/O1eevq4+VM5/VPnlBpPWaYP93v9mEisAj5K7FwggcAaBFg2AHLB/DjhlWLn+svI3Gv7O4mnD/b64CBiAyyTvDwggcAUCDMDF42zrOar2Jahcf1n5mM3nGK13QPsuJk4G4DLJ+wMCCFyBAANwsRjbQ26qexUq11+xtPhcgB6g9tBGBuCKkvdHBBDYIsAAjGsAHtr/f2u8H3n5dUnqq3Y9JDRt3G2cGIBHZO4fCCBwFQIMwG6xtZdcVLm9cvyZ5Wk+BhjW/DAAZ8refyCAwCUEGIAxDUAt/1eOv2r5yY6/3tCLEztGOxmAq8refyKAwIYAAzCeAaivLFZuP7f8sY73BDhGYu3lnAzAudJ3AAIIJGEAxjMA9d3/yu2Tync3/AzjXhJua+1kACZJ30EIrJ4AAzCWAXh/ksrpk8tHJXmfmwGHuh+AAZgsfwcisGoCDMBYBqByeeX0nUrdLdjinvatXVn30h4GYCf5OxiB1RJgAMYxAJXDr3rn/1kqf2yS37cKMMwqAANwltL9HQEELiXAAIxjACqHVy6/UPnrHT0lsJcr8WO1kwG40BTwJgRWR4ABGMMA1FP/KofvVX7HKsAQqwAMwF7TwJsRWA0BBmAMA1C5e+/yZ3wtkAHYW0UqQACBXggwAP0bgPraX+XuWcrzfBTQvQmwAjDLVFAJAsMTYAD6NgC19F85e9by0iS3+jigWyPAAMw6HVSGwLAEGIB+DcBtSSpXL1JeleQuJqBLE8AALDIlVIrAcAQYgD4NwN1J/tOSanx8kt9K8gAT0J0JYACWnBnqRmAcAgxAfwagcvJvJ6kcvWippwm9hwFgABZVmcoRQOBYBBiA/gzA9VOe9DeXoD7bNwMYgLnEpB4EEGiKAAPQlwGox/xWTj5o+XImoCsT4COAg04PJ0OgWwIMQD8GoJL/VxxLaX8uSS09POgjgebNAANwrFnivAj0RYABaN8AVM59b5LKwUctn5ikdhyqRw4ea5tb5z2fPQNw1Gni5Ah0Q4ABOD+eHjPnfCDJ7yap3NtE+cgkP5vkdiagWRPEADQxVTQCgeYJMADtGoDKsT+XpHJuc+U77RjIADSnSg1CAIFdCDAAbRqA2oivcmzTpbYgrH2Ij7lE4tyX87cC0PS00TgEmiHAAFweP4+dUyqnPr8ZhZzTkGcneYePBJoyQQzAOaL13wgg8BABBqAdA1BL/pVLK6d2Va5J8qLNpkG2Dz6+oBiArqaPxiJwNAIMwPHjdeXM2nCvcmjl0m5LbU34kiQ3JrnHRwNHWxVgALqdQhqOwEEJMADHMwCVIytXVs5cfFvfQ6rqyUl+JEltXOBZAocXGANwSLU7FwL9EmAADh+fKydWbqwcWbly2PL0JK/e3Ch4vxWBg60IMADDTikdQ2BWAgzA4QxA5cC6wa9yYuXG1ZRPS/I9Sa718cBBTAADsJqppaMI7EWAAVjWAJwu81fuqxxYuXDVpZzPNyV562YfATcNzi9ABmDVU0znEZhMgAGYP/5WTrtlk+Mq163qan+y8jaff7wwyWuT1MYHtTxyt48K9l4lYAB2UaFjEVgvAQZgfwNQOatyV+WwymWV04b+bH+J6VJ3QT7nZN/jr0zysiS/nORdm48Myk3dtnFVBbrunGzlp8UVDAZgCYWqE4HxCLRoACqmthLfqx2Vcy7NQfW3yk2VoypXVc6q3DXUnfwtSv1jkvzxJM9o6KeMybF3jto+PwPQonq1CYH2CLRoACqmthTjK+dU7lEQuIxAOcPtBHzs1wzAZcPkDwggcAUCLRqAiqkKAl0QYAC6GCaNRACBKxBgAK4AxZ8QmEqAAZhKynEIINAaAQagtRHRnq4IMABdDZfGIoDAJQQYgEtg+CcCuxJgAHYl5ngEEGiFAAPQykhoR5cEGIAuh02jEUAgCQNABgjsQYAB2AOetyKAwFEJMABHxe/kvRNgAHofQe1HYL0EGID1jr2ez0CAAZgBoioQQOAoBBiAo2B30lEIMACjjKR+ILA+AgzA+sZcj2ckwADMCFNVCCBwUAIMwEFxO9loBBiA0UZUfxBYDwEGYD1jracLEGAAFoCqSgQQOAgBBuAgmJ1kVAIMwKgjq18IjE+AARh/jPVwQQIMwIJwVY0AAosSYAAWxavy0QkwAKOPsP4hMC4BBmDcsdWzAxBgAA4A2SkQQGARAgzAIlhVuhYCDMBaRlo/ERiPAAMw3pjq0QEJMAAHhO1UCCAwKwEGYFacKlsbAQZgbSOuvwiMQ4ABGGcs9eQIBBiAI0B3SgQQmIUAAzALRpWslQADsNaR128E+ifAAPQ/hnpwRAIMwBHhOzUCCOxFgAHYC583r50AA7B2Beg/Av0SYAD6HTstb4AAA9DAIGgCAghciAADcCFs3oTAwwQYAEpAAIFeCTAAvY6cdjdBgAFoYhg0AgEELkCAAbgANG9B4JQAA3BKwm8EEOiNAAPQ24hpb1MEGICmhkNjEEBgBwIMwA6wHIrANgEGYJuI1wgg0AsBBqCXkdLOJgkwAE0Oi0YhgMAEAgzABEgOQeAsAgzAWWT8HQEEWifAALQ+QtrXNAEGoOnh0TgEELgKAQbgKnD8FwLnEWAAziPk/xFAoFUCDECrI6NdXRBgALoYJo1EAIErEGAArgDFnxCYSoABmErKcQgg0BoBBqC1EdGerggwAF0Nl8YigMAlBBiAS2D4JwK7EmAAdiXmeAQQaIUAA9DKSGhHlwQYgC6HTaMRQCAJA0AGCOxBgAHYA563IoDAUQkwAEfF7+S9E2AAeh9B7UdgvQQYgPWOvZ7PQIABmAGiKhBA4CgEGICjYHfSUQgwAKOMpH4gsD4CDMD6xlyPZyTAAMwIU1UIIHBQAgzAQXE72WgEGIDRRlR/EFgPAQZgPWOtpwsQYAAWgKpKBBA4CAEG4CCYnWRUAgzAqCOrXwiMT4ABGH+M9XBBAgzAgnBVjQACixJgABbFq/LRCTAAo4+w/iEwLgEGYNyx1bMDEGAADgDZKRBAYBECDMAiWFW6FgIMwFpGWj8RGI8AAzDemOrRAQkwAAeE7VQIIDArAQZgVpwqWxsBBmBtI66/CIxDgAEYZyz15AgEGIAjQHdKBBCYhQADMAtGlayVAAOw1pHXbwT6J8AA9D+GenBEAgzAEeE7NQII7EWAAdgLnzevnQADsHYF6D8C/RJgAPodOy1vgAAD0MAgaAICCFyIAANwIWzehMDDBBgASkAAgV4JMAC9jpx2N0GAAWhiGDQCAQQuQIABuAA0b0HglAADcErCbwQQ6I0AA9DbiGlvUwQYgKaGQ2MQQGAHAgzADrAcisA2AQZgm4jXCCDQCwEGoJeR0s4mCTAATQ6LRiGAwAQCDMAESA5B4CwCDMBZZPwdAQRaJ8AAtD5C2tc0AQag6eHROAQQuAoBBuAqcPwXAucRYADOI+T/EUCgVQIMQKsjo11dEGAAuhgmjUQAgSsQYACuAMWfEJhKgAGYSspxCCDQGgEGoLUR0Z6uCDAAXQ2XxiKAwCUEGIBLYPgnArsSYAB2JeZ4BBBohQAD0MpIaEeXBBiALodNoxFAIAkDQAYI7EGAAdgDnrcigMBRCTAAR8Xv5L0TYAB6H0HtR2C9BBiA9Y69ns9AgAGYAaIqEEDgKAQYgKNgd9JRCDAAo4ykfiCwPgIMwPrGXI9nJMAAzAhTVQggcFACDMBBcTvZaAQYgNFGVH8QWA8BBmA9Y62nCxBgABaAqkoEEDgIAQbgIJidZFQCDMCoI6tfCIxPgAEYf4z1cEECDMCCcFWNAAKLEmAAFsWr8tEJMACjj7D+ITAuAQZg3LHVswMQYAAOANkpEEBgEQIMwCJYVboWAgzAWkZaPxEYjwADMN6Y6tEBCTAAB4TtVAggMCsBBmBWnCpbGwEGYG0jrr8IjEOAARhnLPXkCARuTvKhxn5qUisIIIDAeQRaNAAVUxUEuiDw3saSf5mRV3RBTiMRQODYBCpWtHYBUzFVQaALAtc2OIFe3wU5jUQAgWMTqFjRmgGomKog0AWBtzU4gd7dBTmNRACBYxOoWNGaAaiYqiDQBYE3NDiB6sbEp3dBTyMRQOBYBCpGtHgTc8VUBYEuCPxCgwbgniTf2gU9jUQAgWMRqBhRsaK1FYCKqQoCXRB4eYMTqCb07Ume1gVBjUQAgUMTqNhQMaK15F/tqZiqINAFgRc16qIfTPLaLghqJAIIHJpAxYaKEa0ZgFqRqJiqINAFgc9J0uJeADWx703y1V1Q1EgEEDgUgYoJFRtaS/7VnoqlFVMVBLog8LGN3khzOrlvPdkX4FO6IKmRCCCwNIGKBRUTTuNDa7/rpsSKqQoC3RBodQWgJnct89VnfS/uhqaGIoDAEgQqBlQsaHHp/9SI2AVwiZFX56IE6vO0UwG3+ruW/F6X5BMWJaFyBBBojUDN+Zr7rS77Xxoz3bfUmnq051wCL0xyVwcmoJx/LbG9JMmzzu2VAxBAoGcCNcdrrtecb/mq/9QAVAytWKog0BWBJzf+udrpBDv9fV+SG5Ncn+RNSV6V5Mf9YEAD3Wug5nLN6ZrbNcdrrp/O+9Z/170JFUsVBLoj8BsdTbTWA4H29RO0jZWxmksDFUMVBLok8M2N7gcw1+RUj0BPAzSwlAbq+/8VQxUEuiRQ+2rfZBWgm+XGpQKZeiVJGthdAxU7Pb+ky9Sn0acE3sUAMAA0QAM0sLMGKnYqCHRN4GVJHjD5d578rph2v2LCDLNRNFAxs2KngkDXBD5rc+ftKBNTPyQZGqCBpTVQ31Z4TteRX+MR2BC41gqAFQAaoAEamKyBipkKAkMQ+CuNPxtgaTevfleMNEADUzVQmxRVzFQQGIbA/+L+J7v/qYHCcZIKDYyngYqVCgJDEfjshh8RLIiOF0SNqTHtUQP14J+KlQoCwxH4hU723+4xcGizhEcDfWugnk1QMVJBYEgC9dztlh8TLID2HUCNn/HrWQMVGytGKggMS+DHOnsYR88BRdslRBroQwP1gKKKjQoCQxN4in0B3AzohlAaoIFHaaC+91+xUUFgeALfnuROAeBRAcCVWh9XasbJOM2tgYqFFRMVBFZB4Jokv5LkXiaACaABGlixBioGViysmKggsBoCT0zyeyue+HNfRajPlSkN9KeBioEVCxUEVkfgmUluYAJcAdIADaxQA/W5f8VABYHVEvgC2wQL/isM/q7W+7tan3PMbj1Z+q/YpyCwegLflOQ2SYARoAEaWIEGbj+56KmYpyCAwIbAv0ty1wom/5xXEepa91Wk8e9v/O8+WfavWKcggMAlBB6X5C1J7mcCXAXSAA0MqIGKbW9NUrFOQQCBLQK1EcabrQQI/gMGf1fr/V2tzzlmdeVfsc1mP1tB30sELiVQ7viV7glgApgAGhhEA/WZf8U0V/6XRnr/RuAqBL7RtwMkgEESwJxXkurqayWh7vavWKYggMCOBP7yZp+AD0oEzAAN0EBHGqiYVd/zrximIIDABQk8a7Nj4D0dTX5XaX1dpRkv4zWnBipW1Q5/FbsUBBDYk8CTTpz0G5LcwQS4CqQBGmhYAxWjKlZVzFIQQGAmAo9J8pLNsprVAFdsc16xqYue9tVAxaRa8q8YVbFKQQCBBQjU12h++OTGmpuTPNDwlcC+AcX7JSUaaF8DFYMqFlVM8hW/BQK+KhG4EoFPSvIzm8knULYfKI2RMRpNA5X4KwZVLFIQQOAIBD49ya/6yqDPha0G0cCBNHDLJuZU7FEQQKABAp+b5HeS3GQ7YYngQIlgtCta/Tl7laa28a3YUjGmYo2CAAINEnhGkm9L8tubCft+yYAhoAEauIAGKnZU0q9YUjGlYouCAAKdEHhqkhdvlutqIteWnK5yMKABGjhLAxUjKlbUx4oVOyqGKAgg0DmBJ5w8bfD5SV6d5PrNJL9hs7eAnQYlhLMSgr+PqY2a8/Wd/YoBlfArJlRseF6SihUKAggMTODxJ3fw1k08L0jyXUl+OskvJvm1JG9L8s4kv5/kOj8Y0EC3Gqg5XHO55nTN7ZrjNddrztfcrxhQsUBBAAEEEEAAAQQQQAABBBBAAAEEEEAAAQQQQAABBBBAAAEEEEAAAQQQQAABBBBAAAEEEEAAAQQQQAABBBBAAAEEEEAAAQQQQAABBBBAAAEEEDgigf8PT9Qgx1NaPZ0AAAAASUVORK5CYII=;" vertex="1" parent="GTaBL3b2TxJOTED7LHsO-2">
          <mxGeometry x="445.5" y="172" width="16" height="16" as="geometry" />
        </mxCell>
        <mxCell id="GTaBL3b2TxJOTED7LHsO-40" value="AcciÃ³n" style="strokeWidth=1;shadow=0;dashed=0;align=center;html=1;shape=mxgraph.mockup.buttons.button;strokeColor=#9673a6;mainText=;buttonStyle=round;fontSize=17;fontStyle=0;fillColor=none;whiteSpace=wrap;rounded=0;labelBackgroundColor=none;" vertex="1" parent="GTaBL3b2TxJOTED7LHsO-2">
          <mxGeometry x="590" y="170" width="120" height="20" as="geometry" />
        </mxCell>
        <mxCell id="GTaBL3b2TxJOTED7LHsO-41" value="" style="shape=image;verticalLabelPosition=bottom;labelBackgroundColor=default;verticalAlign=top;aspect=fixed;imageAspect=0;image=data:image/png,iVBORw0KGgoAAAANSUhEUgAAAgAAAAIACAYAAAD0eNT6AAAAAXNSR0IArs4c6QAAIABJREFUeAHtnUuoZWe5tUeZUBVFKS+gEORoQ4MSY+dQCAoqCN4Q0URMSzzpBBFEOSpR00lQEKLoCd5agik82NFgx0Y6NkRJsBHFhhgxECFREXK0Eo0GNf+/R7lnsvbaa+09v9uc3+X5oFi1957X5xvvGO+6zSkxIACBHASeJekNku6Q9ENJv5L0mKT/x78kBmZolmZqtmZs1gwIQAACEIDAqgSukvQJSX8g6JOCPqRRMmszN3sGBCAAAQhAYHEC75X0W4J/seDfbhLM3nPAgAAEIAABCCxC4MzBXm6T9BThv1r4T82A58Bz4TlhQAACEIAABIoRcNBcJPhXD/6pAZgePSc0AcVkz4YhAAEIQMDPNqfQ4bEuFp4bBgQgAAEIQCA7Ab/fzMv+dYX+ZhPmueEzAdllzwYhAAEIjE3AnzjnA3/1hv/UCHiO+HbA2LXK2UMAAhDISsBfO5tChse6WXiuGBCAAAQgAIFkAr7wDN/zrzv0N5syzxUXC0qWPRuAAAQgAAFffW4zYPh//Tw8ZwwIQAACEIBAEgFfgpbQb4uB54wBAQhAAAIQSCLg69DTALTFwHPGgAAEIAABCCQR8M1oaADaYuA5Y0AAAhCAAASSCHBXv7bC382a54wBAQhAAAIQSCLAs//2GgDPGQMCEIAABCCQRIAGgAYgSUCsDAEIQAACbRKgAaABaFO5HDUEIAABCCQRoAGgAUgSECtDAAIQgECbBGgAaADaVC5HDQEIQAACSQRoAGgAkgTEyhCAAAQg0CYBGgAagDaVy1FDAAIQgEASARoAGoAkAbEyBCAAAQi0SYAGgAagTeVy1BCAAAQgkESABoAGIElArAwBCEAAAm0SoAGgAWhTuRw1BCAAAQgkEaABoAFIEhArQwACEIBAmwRoAGgA2lQuRw0BCEAAAkkEaABoAJIExMoQgAAEINAmARoAGoA2lctRQwACEIBAEgEaABqAJAGxMgQgAAEItEmABoAGoE3lctQQgAAEIJBEgAaABiBJQKwMAQhAAAJtEqABoAFoU7kcNQQgAAEIJBGgAaABSBIQK0MAAhCAQJsEaABoANpULkcNAQhAAAJJBGgAaACSBMTKEIAABCDQJgEaABqANpXLUUMAAhCAQBIBGgAagCQBsTIEIAABCLRJgAaABqBN5XLUEIAABCCQRIAGgAYgSUCsDAEIQAACbRKgAaABaFO5HDUEINAdgXOS3iHpVkl3SvqOpIuSviDp45IuSDrT3Vmvd0I0ADQA66lv/T3bS/5T0n8fesxdh55j77EH2YvsSQwIQKAggddJ+u5ByD+u0w35d5K+KumlBY9nlE3TAJyutxoZjaLPUud5taT/kfTwDL+xJ9mb7FEMCEAgI4FrJN09owh3mfDfJH1R0vmMxzPapnZx5Xf1NwWj6TTX+dor/GriE5GeY6+yZzEgAIFEAtfPfMZ/WiA9IOlViccy6uqnseXvdTYDo+o15bztEfaKVE37FQF7FwMCEIgkcLukpzIU41TMlyS9PfJYRl5t4sdjejAsyXBkzcacu73BHpFrjuxd9jAGBCAQSODLGQtxs6CflPTuwGMZffFNfvw/X0CUZjm6bkPO355gbygxJ/YyBgQgMJNAqfCfipsmYOZEHC42ceOxTECU4ho2y+MuXTL8p7mlCRhXX5x5AIHS4T8VJE3A/EmZmPFIAzBfNW0suUT4T3VDE9CGJjjKlQgsFf5TQdIEzJvoiRePNADzFNPGUkuG/1Q7NAFtaIOjXJjA0uE/FSRNwOkTPbHikQbgdLW0scQa4T/VD01AGxrhKBcisFb4TwVJE3DyRE+ceKQBOFkpbfx1zfCfaogmoA2tcJSFCawd/lNB0gTsn+iJEY80APtV0sZfagj/qY5oAtrQDEdZiEAt4T8VJE3A7ome+PBIA7BbIW38tqbwn2qJJqAN7XCUmQnUFv5TQdIEHJ/oiQ2PNADH1dHGb2oM/6meaALa0BBHmYlAreE/FSRNwNGJnrjwSANwVBlt/FRz+E81RRPQhpY4ykQCtYf/VJA0AZLvhvahQldHmzjzWK6p8Nx5DkceLYT/VAM0ASMrdYBzbyX8p4IcsQl4zeE9zn+a+T4ME1MeywX+Lra+Hr3n0vet99yONFoK/2nuaAJGUuhA59pa+E8F2XsTcIWkNx/cLtnz8yDP9otcC37SUg2PnmPPtefcc9/raDH8J33QBPSqykHPq9XwnwqytybguZJukHRR0qOEfvehP+l4+9Fzbw1YC9ZEL6Pl8J/miCagFzUOfh6th/9UkK03AX629y5J35P0d0J/2NCf9Lz9aE1YG9ZIy68M9BD+09zQBAwenq2ffi/hPxVki03AqyXdIen3hD6hP1MD1oo1Y+20NHoK/8lzaAJaUiDH+jSB3sJ/KsgWmoDzkm6WdN9Mw5/OjcdlP6DXAm9ryFqypmoePYb/pA+agJqVx7EdI9Br+E8FWWMTcEbSWyR9W9ITBD/P9jNrwJqytqwxa62m0XP4T55DE1CT4jiWvQR6D/+pIGtpAvw979slPZTZ8Kfz5JFXBbY1YK1ZczVcY2CE8J/40wTsjR3+UAOBUcJ/Ksg1m4DrJH1Lko9hOh4eYbGkBqw9a9BaXGOMFP7TvNIErKE09nkqgdHCfyrIpZuAt0q6h9Cn6alMA9aktbnUGDH8J8+hCVhKZexnFoFRw38qyNJNwFlJH5T0i8pMfzp/HnnlYdKANWqtWrOlxsjhP3GmCSilLrYbRGD08J8KskQT8PyD7+x/StIjBD/P+BvTgDVr7VrDOQfh/0yzSROQU1lsK5gA4f9MMboRyNUEvEzSnZIeb8z0p2aIx6O6GJmHNWwtW9Opg/A/riuagFRVsX4UAcL/eDGmNgEvkfQVPtjHs/0OGz83x9a2NR4zCP/dfmPPoQmIURTrRBMg/PcXY0wT4IusfE7SXzo0/pGf/XLux+vEGrfWQy4sRPgf57itLZqA6DhjxRAChP/pxTi3CXi2pE9yQx6e8Q/Y+PlGRNa+a+CkQfjP8xt7Dk3ASUrib8kECP/5xXhSE3Dl4eVVHx7Q+LefufBzmKZ64+Ua8KWGXRPbg/AP1wZNwLaK+DkLAcI/vBi3mwBfQvVGSb8m+HnWjwaOaMA14dqYLjNM+Mf5jT2HJiBL5LGRiQDhH1+MUxPgr0Tdj+kfMf3ens1yPml1Yn6uEdeKPzQIz3gGNAFTevGYRIDwjy9CDAx2aAANrKUBmoCk6GNlwh/zWsu82C/aQwPpGqAJIMejCBD+6cWHgcEQDaCBtTVAExAVgeOuRPhjWmubFvtHg2ggnwZoAsbN86AzJ/zzFR0GBks0gAZq0QBNQFAUjrcw4Y9Z1WJWHAdaRAP5NUATMF6uzzpjwj9/sWFgMEUDaKA2DdAEzIrEcRYi/DGp2kyK40GTaKCcBmgCxsn3E8+U8C9XZBgYbNEAGqhVAzQBJ0Zj/38k/DGnWs2J40KbaKC8BmgC+s/5nWdI+JcvLgwMxmgADdSuAZqAnRHZ7y8Jf0ypdlPi+NAoGlhOAzQB/eb9kTMj/JcrKgwM1mgADbSiAZqAI1HZ3w+EP2bUihlxnGgVDSyvAZqA/nL/8hkR/ssXEwYGczSABlrTAE1AZ00A4Y8JtWZCHC+aRQPraYAmoJMmgPBfr4gwMNijATTQqgZoAhpvAgh/zKdV8+G40S4aWF8DNAGNNgGE//rFg4ExB2gADbSuAZqAxpoAwh/Tad10OH40jAbq0QBNQCNNAOFfT9FgYMwFGkADvWiAJqDyJoDwx2x6MRvOAy2jgfo0QBNQaRNA+NdXLBgYc4IG0EBvGqAJqKwJIPwxmd5MhvNB02igXg3QBFTSBBD+9RYJBsbcoAE00KsGaAJWbgIIf8ylV3PhvNA2GqhfAzQBKzUBt6t+cVDAzBEaQANooG8NOIsYCxK4XtJTNADCWPo2FuaX+UUD9WvAWeRMYixA4BpJjxP+hD8aQANoAA1UogFnkrOJUZjA3ZVMOJ15/Z05c8QcoQE0sJQGnE2MggReR/jT8aMBNIAG0EClGnBGMQoR+G6lk75Uh8l+eDaDBtAAGqhXA84oRgEC53jvn66fBhANoAE0ULEG/FkAZxUjM4F3VDzpdOT1duTMDXODBtDAkhpwVjEyE7iVBoDOHw2gATSABirXgLOKkZnAnZVP+pIdJvviGQ0aQANooE4NOKsYmQl8hwaAzh8NoAE0gAYq14CzipGZwMXKJ51uvM5unHlhXtAAGlhSA84qRmYCX6ABoPNHA2gADaCByjXgrGJkJvDxyid9yQ6TffGMBg2gATRQpwacVYzMBC7QAND5owE0gAbQQOUacFYxMhM4I+l3lU88HXmdHTnzwrygATSwhAacUc4qRgECX6UBoPtHA2gADaCBSjXgjGIUIvBSSX+rdOKX6C7ZB89i0AAaQAN1asDZ5IxiFCTwRRoAun80gAbQABqoTAPOJkZhAuclPVDZxNOR19mRMy/MCxpAA0towJnkbGIsQOBVki7RBPAMAA2gATSABlbWgLPImcRYkMDbJT258sQv0VmyD57BoAE0gAbq1IAzyFnEWIHAu2kC6P5pAtEAGkADK2jA4e8MYqxIgCagzs6YZyzMCxpAA71qgPBfMfS3d00TgNH0ajScF9pGA3VpgPDfTuAKfqYJqKtIMC3mAw2ggd40QPhXEPb7DoEmAMPpzXA4HzSNBurQAOG/L3kr+j1NQB3FgmkxD2gADfSiAcK/opA/7VBoAjCeXoyH80DLaGBdDRD+pyVuhX+nCVi3aDAt+KMBNNC6Bgj/CsN97iHRBGBArRsQx4+G0cA6GiD85yZtxcvRBKxTPJgW3NEAGmhVA4R/xaEeemg0ARhRq0bEcaNdNLCsBgj/0IRtYHmagGWLCNOCNxpAA61pgPBvIMxjD5EmAENqzZA4XjSLBpbRAOEfm6wNrUcTsEwxYVpwRgNooBUNEP4NhXjqodIEYEytGBPHiVbRQFkNEP6pidrg+jQBZYsK04IvGkADtWuA8G8wvHMdMk0ABlW7Qc05vn9K+o2kH0j6mqTPS/qMpI9IuknS+yS9TdLrJV0n6eWSXiTp7OE//9+/89+8jJf1Ol7X2/C2vE1v2/vwvrzPOcfGMnCqVQOEf64kbXg7NAEYVK0GtX1cf5J0n6S7JH1a0vWSrj0I53Mr1J/36X37GHwsPiYfm49x+7j5GSa1aYDwX8E0at0lTQAGVZtB/VnS9w8C9aOS3ijpxbUWz47j8rH6mH3sPgefS218OZ5x54Tw31G0o/+KJmBcQ6ghDP4q6R5Jtxy8zH5B0hUdFaTPxefkc/M5+lxrYM4xjDcPhH9HxpL7VGgCxjOEtULARvSjAwHfdvhs2e/HjzJ8rn6FwOduBmax1jyw33HYE/6jOEzCedIEjGMIS5u/DehuSe+R9JwEjfa2qlmYidnQDFB/JeqS8O/NNQqeD00AJpTThO6V9GFJLyyo2V42bUZmZWY554BtjcuT8O/FHRY8D5qAcQ0jR1g8dPA+/mclXbOgZnvbldmZoVnmmBO2MR5Hwr83V1jwfGgCxjOMlJC4JOmbkt4k6cyCOu19V2ZppmZrxilzxLrj8CP8e3eGBc6PJmAcw4gNh4cPvur2Md7XX6Aa//3ZCbM289j5Yr3+2RH+i5TjGDuhCejfMGJC4UFJNx9eTW+MSqjnLP1NArP3HMTMHev0y43wr6dOuzkSmoB+DSM0DH55EDwfkHRlN+pu90Q8B54Lz0noPLJ8f8wI/3ZrufojpwnozzBCQuB+STfw/n6VderPCXhuPEchc8qy/fAi/Ksszb4O6lMYzHAG+xNJ7+xLxl2fjefKc0a4j8XA3syAQDECfpbBM4xxTOURSTcWUxMbLk3Ac+c5pBEYg4G9mW/flK6qgbdvQ8FM+mfwD0lfkvS8gbXey6l7Dj2XnlNqt38GNOy9VG5l5+EPG/0aE+neRH98cEna11amPQ4nnYDn1HNLE9A3A3s0H85Nrxe2sEXAXznCPPpl8EdJN/ES4pbq+/rRLw97jj3X1HK/DOzVDAhkI/BsLjzSrWH+S9I3JL0gm1rYUO0EPNeec889jUB/DHyRKHs2AwJZCHwSo+jSKH9+eJ/6LCJhI80RuHBwF0JrgCagPwb2bAYEkgmcl/QoJtGdSfoZ4FXJ6mADrROwBqwFmoC+GNiz7d0MCCQR+Bzm0JU5PsZX+5LqodeV/elxa4NGoB8G9m4GBKIJvETSXzCFbkzxZ5JeGa0GVuydgLVhjdAE9MHA3m0PZ0AgisBXMINuzPDrks5FqYCVRiJgjVgrNAF9MLCHMyAQTOBlknxtaYygbQa+f/z7g2efFUYnYM1YO9R/2wzs4fZyBgSCCNxJ8Tdvfr406CuCZp2FIfAMAWuHS3+33QC4gbOXMyAwm8DzJT1OA9B0A/C/vOQ/W+8suJ+A3xKwlngloF0G9nJ7OgMCswhwx792i91G7Wu/c1OQWVJnoRkErCVriiagXQbcKXCG0FlEOssdxJo2ulsQMQQKEbC2aALaZOC7QtrbGRA4kcAHKfImTc53e/uvE2eWP0IgnYA1xp0F22wC7O0MCJxI4Bc0AM01AE9IeteJs8ofIZCPgLVmzfFqQFsM7O0MCOwl8FaKujlT+z9Jr987o/wBAmUIWHPWHk1AWwzs8QwI7CRwDwXdlKH5rl/X7pxJfgmB8gSsPWuQJqAdBvZ4BgSOEbiOQm7KyB6Q9B/HZpFfQGBZAtagtUgT0A4Dez0DAkcIfIsibsbE/KyL8D8iX35YkYC1yCsB7TQA9noGBJ4mcDWX/W0m/P2+Ky/7Py1d/lMJAWuSzwS00QT48sD2fAYELhO4nWf/TTQA/uQ1H/ijaGslYG3y7YA2mgB7PgMCl68Y9xANQPUNgL97zVf9KNjaCVijXCeg/ibAns/VQmuvpgWO7y2Ef/Xh7w9YcZGfBYqBXWQhYK3yocD6Gdj7GYMT+DbFWr1ZcXnfwYu0wdPnssH1NwD2fsbABM7znl314f/lgfXJqbdNgBsI1d0E+PMazgDGoARu5tl/1Q2Ab8PK+3SDFmcHp23tcivhupsAZwBjUAL30QBU2wDcL8n3YmdAoGUC1rC1zGcC6mRwb8vi4tjjCbyaoqzWlC5JekX81LImBKoiYC1b0zQBdTJwFjAGI3AHBVmtIb1/MC1yuv0TsKZpAOpk4CxgDETgCkm/pyCrNKSvD6RDTnUsAtY2TUB9DJwFzgTGIAR8sQ4KsT4GP+N9/0EqcMzT9OcBrHG8pz4GXGRsoJr8HkVYnQk9dvCJ6VcOpEFOdUwC1ri1ThNQFwNnAmMAAs+V9HcKsDoDunEA7XGKEDABa50GoC4GzgRnA6NzAjdQfNWZzzc61xynB4FtAtY8TUBdDJwNjM4JXKTwqjKen0u6qnPNcXoQ2CZgzVv7NAH1MHA2MDom4E96PkrRVWM6/5J0oWO9cWoQOImAte8aoAmog4GzgW8DnKTYxv/2ZoqtKrPhpf/GC4rDTybAWwF1hP/UhDkjGJ0S8I1lponmcV0Wf5T0gk51xmlBYC4B14BrAT+qgwE3H5ur3AaXe5BCq8ZobmpQPxwyBEoQcC3QANTBwBnB6JDAayiyakzmx9zlr8MK45RiCfiuga4JmoA6GDgrGJ0RuJUCq8Jg/iHptZ1pi9OBQCoB14RrgyZgfQbOCkZnBH5KcVVhLl/qTFecDgRyEXBt0ACsz8BZweiIwNWSnqK4VjeXRyQ9ryNdcSoQyEnAteEaoQlYl4GzwpnB6ITAhyiqKkyFy/12UlCcRjECXCZ43fCfmi9nBuOQwLMkvUGS75v8Q0m/4oYWVQTqJNYWHn9CNUEAArMIuFZaqGmOsY558s2lnMnOZme0s9qZnTx8ucpPSPoDgqQgEzXwzmQ1sgEIjEHAtUK4wiBFA85sZ3f0ZdbfK+m3CJFCzKCB+8fwbc4SAtkIuGZSAoB14WcNOMOd5bOHv5N6Gx+ao/gyGhB32ZpdfiwIgcsEuGspAZ6rifOHGp3pzvYThxfgbnkIL5fwvJ1fzhHeiarkjxAYj4C92LWTsxbZ1tg8ne0nNgHuEhAJDHJq4APjeTdnDIEsBFw7OWuRbcHTGb9z+H0CviuPQHKahK+rfeVOtfFLCEDgNAKuHe5fgifn9GRn/LHPBPiTgnzgD6HlFJq3dfNpDsffIQCBEwm4hnLXJdsbm6mz/si3A/x1AUQBg5waeFjS2ROtjT9CAAKnEXANuZZy1ibbgqcz//LwBQP4nj+CyG0KH5sExiMEIJBEwLWUuz7Z3thMnfmXLxbkqwYhBhjk1MClgytSPSfJ8lgZAhCYCLiWXFM5a5RtwdPZf/nSgYgBMeTUwDcn5+IRAhDIQsA1lbNG2RY8fdngy9cPRgyIIacG3pTF8tgIBCAwEXBN5axRtgVP3zvg8k0EEANiyKWBh0672MTkaDxCAAKzCfgCLq6tXHXKdmDpGwjJdxJCDDDIpYHPzrY0FoQABEIIuLZy1SnbgaWzH0HBIKsGrglxNJaFAARmE3BtEdwwyKkBBEVRZdPAvbOtjAUhAIEYAq6xnAHAtsbmiZgoqGwa+HCMo7EOBCAwm4BrjNCGQS4NICYKKosGnpT0wtk2xoIQgEAMAdeYay1XALCdsVkiJIopiwbujnEz1oEABIIJuNYIbhjk0ABCopiyaOA9wTbGChCAQAwB11oO82cbcERIFFOyBvySJJf+jbFy1oFAOAHXGm8DEN45Grhk889xEGyjbTH/KNzDWAMCEEgg4JrDN2GQqgFERCEla+C2BCNjVQhAIJyAay7V/FkfhoiIQkrWwBvD/Ys1IACBBAKuOQIcBqkaQEQUUpIG/irpbIKRsSoEIBBOwDXn2ksNANYfmyECooiSNHBPuHexBgQgkIGAa48Ah0GKBhAQRZSkgVsyGBmbgAAEwgm49lLMn3Xhh4AooiQNXAj3LdaAAAQyEHDtEeIwSNEAAqKIojXwZ0lXZDAyNgEBCIQTcO25BlMCgHXH5od4KKBoDXw/3LNYAwIQyEjANUiIwyBWA4iHAorWwEczGhmbggAEwgm4BmPNn/Vgh3gooGgN8P3/cMNmDQjkJMD1AAjxlEYu2vxTdsq6fYj2xTmdjG1BAALBBFyD+CkMYjWAeCigKA38KdiqWAECEChBwLUYGwCsNzY7hEPxRGngvhJOxjYhAIFgAq5FghwGMRpAOBRPlAbuCrYpVoAABEoQcC3GmD/rwA3hUDxRGvh0CSdjmxCAQDAB1yJhDoMYDSAciidKA9cH2xQrQAACJQi4FmPMn3XghnAonigNXFvCydgmBCAQTMC1SJjDIEYDCIfiCdbAPyWdC7YpVoAABEoQcC26JmMCgHXG5oZoKJxgDfymhIuxTQhAIJqAa5Iwh0GoBhANhROsgR9E2xQrQgACJQi4JkPNn+VhhmgonGANfK2Eg7FNCEAgmoBrkkCHQagGEA2FE6yBz0fbFCtCAAIlCLgmQ82f5WGGaCicYA18poSDsU0IQCCagGuSQIdBqAYQDYUTrIGPRNsUK0IAAiUIuCZDzZ/lYYZoKJxgDdxUwsHYJgQgEE3ANUmgwyBUA4iGwgnWwPuibYoVIQCBEgRck6Hmz/IwQzQUTrAG3lbCwdgmBCAQTcA1SaDDIFQDiIbCCdbA66NtihUhAIESBFyToebP8jBDNBROsAauK+FgbBMCEIgm4Jok0GEQqgFEQ+EEa+Dl0TbFihCAQAkCrslQ82d5mCEaCidYAy8q4WBsEwIQiCbgmiTQYRCqAURD4QRr4Gy0TbEiBCBQgoBrMtT8WR5miIbCCdYADUAJC2ebEIgnQANAmMc0dMHmH7MT1ulLnLwFEG/UrAmBEgR4C6Avj10qM2kAeAUgWAN8CLCEhbNNCMQT4EOANAAxTUOw+cfshHX6EidfA4w3ataEQAkCfA2wL49dKjNpAHgFIFgDXAiohIWzTQjEE+BCQDQAMU1DsPnH7IR1+hInlwKON2rWhEAJAlwKuC+PXSozaQB4BSBYA9wMqISFs00IxBPgZkA0ADFNQ7D5x+yEdfoSJ7cDjjdq1oRACQLcDrgvj10qM2kAeAUgWAMfKeFgbBMCEIgm4JpcKjTYTz+sEQ2FE6yBz0TbFCtCAAIlCLgmCWYYhGoA0VA4wRr4fAkHY5sQgEA0AddkqPmzPMwQDYUTrIGvRdsUK0IAAiUIuCYJdBiEagDRUDjBGvhBCQdjmxCAQDQB12So+bM8zBANhROsgd9E2xQrQgACJQi4Jgl0GIRqANFQOMEa+KekcyVcjG1CAALBBFyLrslQ82d5mCEaCidKA9cG2xQrQAACJQi4FglzGMRoAOFQPFEauL6Ek7FNCEAgmIBrMcb8WQduCIfiidLAp4NtihUgAIESBFyLhDkMYjSAcCieKA3cVcLJ2CYEIBBMwLUYY/6sAzeEQ/FEaeC+YJtiBQhAoAQB1yJhDoMYDSAciidKA38q4WRsEwIQCCbgWowxf9aBG8KheKI18OJgq2IFCEAgJwHXIEEOg1gNIB4KKFoDb8zpZGwLAhAIJuAajDV/1oMd4qGAojXw0WC7YgUIQCAnAdcgQQ6DWA0gHgooWgPfz+lkbAsCEAgm4BqMNX/Wgx3ioYCiNfBnSVcEWxYrQAACOQi49lyDBDkMYjWAeCigJA1cyOFkbAMCEAgm4NqLNX7Wg501gIBgkKSBW4JtixUgAIEcBFx7BDkMUjSAgCiiJA3ck8PJ2AYEIBBMwLWXYv6sCz8ERBElaeCvks4GWxcrQAACKQRcc649QhwGKRpAQBRRsga4HkCKlbMuBMIJ8P1/gj8l+Kd1k81/2hCP4wrytnD/Yg0IQCCBgGsOz4VBqgYQEYWUrIEfJRgZq0IAAuEEXHOp5s/6MEREFFKyBp6U9JxwD2MNCEAggoBrzTVHgMMgVQOIiELKooH3RBgZq0AAAuEEXGupxs/6MLRtmqpcAAAZZklEQVQGEBIMsmjg7nAfYw0IQCCCgGuNAIdBDg0gJIopiwb8kuQLI8yMVSAAgfkEXGO8/E/45wh/XgEg/LOE/yTGD8/3MZaEAAQiCLjGpnrjERapGkBMFFQ2DdwbYWisAgEIzCfgGks1fdaH4aQBxERBZdXANfO9jCUhAIEAAq6tybh5hEUODegxREVRZdTAZwMMjUUhAIH5BFxbOUyfbcDRGnD261eIiqLKqIGHJJ2Z72ksCQEIzCDgmnJtEd4wyKUBZ79+iKgoqswaeNMMQ2MRCEBgPgHXVC7jZzuwtAac/boDYVFYmTXwzfm+xpIQgMAMAq4pghsGOTXg7NcbEBaFlVkDl7g08AxLZxEIzCPgS/+6pnKaP9uCp7Nfz5L0B8RFcWXWwMfmeRtLQQACpxBwLRHYMMipAWe+s//y+AQCo8Aya+BhSWcngfEIAQhEEXANuZZymj/bgqcz/+lxlaTfIjKKLLMGbn5aYfwHAhCIIeAaIrBhkFMDznpn/pHxXklPITaKLaMGHpR05RGV8QMEIDCXgGvHNZTT/NnW2Dyd8c76neM2xEaxZdbAB3YqjV9CAAKnEXDtENgwyKkBZ/ze4YtNXER0FF1GDfySCwPtrTf+AIF9BOzFrp2c5s+2xubpbD/1Im1ewF0CbweMLZacZnHDPpfj9xCAwE4CrpmcNci2xuXpLHemnxr+m0r0+wR8MHBc0eQ0jPs3hcX/IQCBUwm4ZnLWINsak6czfO97/qep0J8U9NcFuE7AmOLJaRrvPE1s/B0CELhMwLWSs/bY1ng8ndnO7mOf9o+pMV8wwFcN8qUDff1g30SAuwiOJ6oUI/lJjPBYBwIDEnCtpNQa647Fz1nsTHY2O6Od1U9f5GfA+jl2yh+ioKowlBuPzQy/gAAENgm4Rgjw9Rk4MxidELiaDzVWYSqPSHpeJ5riNCCQm4BrwzVCA7AuA39ozpnB6IjATymsKozlSx1pilOBQE4Crg3Cf30GzgpGZwRupbiqMJd/SHptZ9ridCCQSsA14dqgAVifgbOC0RmB11Bc1ZjLj0O/k9qZFjkdCGwS8PezXROEfx0MnBWMDglwXe06CsxGd1OH+uKUIBBDwLVA+NfBwBnB6JTAlym0aozmj5Je0KnOOC0IzCXgGnAt0ADUwcAZweiUwJsptKqM5hud6ozTgsBcAq4Bwr8eBs4IRqcErpD0KAVXjeH8S9KFTrXGaUHgNALWvmuABqAOBs4GZwSjYwLc7bCOYptM7+e5LlfZsWY5tf4I+BKt1v5UBzyuz8LZwOicAHfZWr/Qts2OtwI6LzpO7xgBXvqvz4e4a+kxmfb3i+dK+judd3XPPLhMcH+1xhntJsDlfusLf2eCs4ExAIHv0QBU1wD4hhavHEB7nOLYBKxxbqRWXwPgTGAMQuBdNADVNQB+W+Bnks4NokFOczwC1rY1vv0WGD+vz8SZwBiEgD/p+XsKsUoj+vogGuQ0xyNgbRP29TFwFvDp/8Hq0fdNphjrZPD+wbTI6fZPwJrGb+pk4CxgDEbg1RRktYZ0SdIrBtMjp9svAWvZmqYBqJOBs4AxIIH7KMpqTel+Pg8wYEX2d8p+399aJvzrZHBvf5LjjOYSuJnCrNqY/pe7Bs6VMstVSMB3+bOGCf96GTgDGIMSOC/pCQq0aoPi5hyDFmcHp/0lvKVqb7H3OwMYAxP4NkVadZH62dMtA+uTU2+TgDXLM/+6Gdj7GYMTeAuF2oRR/dfgOuX02yFgrRL+9TOw9zMGJ+D36R6iYKs3rH9I4mIdgxdrA6dvjVqrNAB1M7Dn2/sZENDtFGwThuX37F6PXiFQKQFrk88U1R38U2Nmz2dA4DKBqyU9SRPQRBPwf5KuRbcQqIyANWltTgHDY70s7PX2fAYEnibwLYq3GfN6WNJ/PD1z/AcC6xKwFq1JQr8NBvZ6BgSOELiOAm7KwB6gCTiiX35Yh4DD31ok/NthYK9nQOAYgXso5KaMzM+6eDvgmIz5xUIErD2e+bcT/G7S7PEMCOwk8FYagKYaABe033flg4E75cwvCxKw5njPv63wt1/Y4xkQ2EvgFzQBzTUB/uQ1XxHcK2n+kJmAtcan/dsLf3s7AwInEvggDUBzDYA7e3/3mosFnSht/piBgDXG9/zbC397hL2dAYETCZyV9AhNQJNNgIucywafKG/+mECAy/u2Gfz2BXu6vZ0BgVMJfIoGoNkGwMXum7Bwla9TZc4CMwlYS9zYp93wtyfY0xkQmEXg+ZIepwlougnwbVh9L3YGBFIIWEPc0rft8LeX29MZEJhN4E4agKYbAHf990t6xewZZ0EIHCVg7VhD1hL/2mVgL2dAIIjAy7g8cBemd0nS+4NmnoUh8G/NWDsEf9sMfNlfezkDAsEEvoIBdGOAX+ctgWD9j7iCX/K3Vgj+PhjYwxkQiCLwEkl/wQy6McOfHbyf+8ooJbDSCASsDWuE8O+Dgb3bHs6AQDSBz2EIXRniY5JujFYDK/ZKwJqwNgj/fhjYuxkQSCJwXtKjGEN3xvgNSVclKYOVeyBgDVgLBH9fDOzZ9m4GBJIJfBKD6NIgfy7pQrI62ECrBDz31gDh3x8DezYDAlkIPJu7fnVrkv86fAb4gixKYSMtEPBc+1m/557w74+B79Boz2ZAIBuBmzGLrs3yj5Ju4gqC2eqlxg35in6eY881wd8vA3s1AwJZCVwp6dcYR/fG+WNJr82qHDZWAwHPqeeW4O+bgT3aXs2AQHYC/qQwBtI/A9/tzdd+f152BbHBpQl4Dj2X3MGv/7q1N/MNn6UrbKD9+SVELg06hpHYTHwHMQyl3QL33HFnz3Hq1d7MTcDardcmjpw7BY5jKNOrPT+R9M4m1MlBmoDnynM2zR+PY7Dgjn/Uf1EC7+b+AEObqp9h3MCzjKI1FrtxP/Pz3PAK3Rhhv6up83X/7dEMCGQnQPiPayzbZvNLSR/gw0bZayxmg/7Al+fCc7I9T/w8HhOagJgqYp0TCRD+4xnJnPB4UJK/cnT2RPXwxxIEzNzsPQdz5oplxuFEE1Ci4gbdJuE/jnHEhoQvPPIxSc8ZtEaWPG0zNmszj50v1uufHU3AklXZ6b4I//6NImcY+P7x35T0Jj4nkNUR/P6+mZqtGeecM7bVL0+agKxlONbGCP9+jWEJ039I0mclXTNW2WQ9W7MzQ7NcYs7YR3+caQKyluQYGyP8+zOCNc393oPLz35Y0gvHKJ+kszQjszKzNeeMfffDnyYgqSTHWpnw76fwazNxG9HdB3egew+fFzhiKn5f30zMxoxqmzeOp/05oQk4UnL8sIsA4d9+obdi1jakHx2I8DZJbxzsmwT+BL/P2eduBoQ+dbdE3dIE7Eo9fneZAOGPCS1hQvv28VdJ90i6RZLvU39FR3Xpc/E5+dx8jj7XfRz4PWxKaoAmoCNjyXUqhD+mU9J0Yrb9Z0nfl/TRw2fLL84l9gW242P1M3wfu8/B5xLDgHXgVkIDNAELmEAruyD8MZkSJlNim3+SdJ+kuw5eNv+0pOslXSvp3ArF5n163z4GH4uPycfmYyxx7mwTrjk1QBOwgmnUtkvCH1PJaSprbeufkn5z8DL7DyR97aAh+Lykz0j6iKSbJL3v4FP1b5P0eknXSXq5pBcdfu7A78f7//6d/+ZlvKzX8brehrflbXrb3of35X2udb7sF/Y5NEATUFsiL3g8hD8mksNE2AY6QgPtaoAmYMHQrWVXhH+7BYvZMndoAA3k1ABNQC3JvMBxEP6YR07zYFvoCQ20rwGagAXCd+1dEP7tFypmyxyiATRQQgM0AWsndMH9E/6YRgnTYJvoCg30owGagIIhvNamCf9+ChSzZS7RABooqQGagLWSusB+CX/MoqRZsG30hQb60wBNQIEwXnqThH9/hYnZMqdoAA0soQGagKUTO+P+CH9MYgmTYB/oDA30qwGagIyhvNSmCP9+CxKzZW7RABpYUgM0AUsld4b9EP6Yw5LmwL7QGxroXwM0ARnCufQmCP/+CxGzZY7RABpYQwM0AaUTPGH7hD+msIYpsE90hwbG0QBNQEJIl1qV8B+nADFb5hoNoIE1NUATUCrJI7ZL+GMGa5oB+0Z/aGA8DdAERIR17lUI//EKD7NlztEAGqhBAzQBuRM9YHtvl+QJqEEIHAPzgAbQABoYTwPOIGcRY0ECr5J0ifCn+UEDaAANoIGVNeAsciYxFiBwXtIDK084nf54nT5zzpyjATSwTwPOJGcTozCBLxL+dPxoAA2gATRQmQacTYyCBF4q6W+VTfq+jpDf82wBDaABNDCOBpxNzihGIQJfJfzp+tEAGkADaKBSDTijGAUInJH0u0onnS5/nC6fuWau0QAa2KcBZ5SzipGZwAXCn64fDaABNIAGKteAs4qRmcDHK5/0fR0hv+fZAhpAA2hgHA04qxiZCXyBBoDOHw2gATSABirXgLOKkZnAxconnQ5/nA6fuWau0QAa2KcBZxUjM4Hv0ADQ+aMBNIAG0EDlGnBWMTITuLPySd/XDfJ7nimgATSABsbRgLOKkZnArTQAdP5oAA2gATRQuQacVYzMBN5R+aTT4Y/T4TPXzDUaQAP7NOCsYmQmcE7S4zQBdP9oAA2gATRQqQacUc4qRgEC36100vd1gvyeZwloAA2ggXE04IxiFCLwOhoAOn80gAbQABqoVAPOKEZBAndXOvF0+eN0+cw1c40G0MC2BpxNjMIEruGzAHT/NIFoAA2ggYo04Pf+nU2MBQhcL+mpiiZ/uxPkZ54doAE0gAbG0ICzyJnEWJDA7TQAPANAA2gADaCBlTXgLGKsQODLK088Hf4YHT7zzDyjATSwSwPOIMaKBGgCKMxdhcnv0AUaQAMlNUD4rxj8m7umCaDQSxY620ZfaAANbGqA8N9M4Ar+TxNAgW4WKP9HD2gADZTQAOFfQeDvOgSaAAq+RMGzTXSFBtCANUD470rein5HE0ChYtZoAA2ggdwaIPwrCvqTDoUmgOLPXfxsD02hgXE1QPiflLgV/o0mYNxixaiZezSABnJpgPCvMODnHBJNACaQywTYDlpCA+NpgPCfk7QVL0MTMF7RYtTMORpAA6kaIPwrDvaQQ6MJwAxSzYD10RAaGEcDhH9IwjawLE3AOMWLUTPXaAANxGqA8G8g0GMOkSYAU4g1BdZDO2igfw0Q/jHJ2tA6NAH9FzFGzRyjATQQqgHCv6EgTzlUmgDMIdQcWB7NoIF+NUD4pyRqg+vSBPRbzBg1c4sG0MBcDRD+DQZ4jkOmCcAk5poEy6EVNNCfBgj/HEna8DZoAvoraoyaOUUDaOA0DRD+DQd3zkOnCcAsTjML/o5G0EA/GiD8cyZoB9uiCeinuDFq5hINoIF9GiD8OwjsEqdAE4Bp7DMNfo820ED7GiD8SyRnR9ukCWi/yDFq5hANoIFtDRD+HQV1yVOhCcA8ts2Dn9EEGmhXA4R/ycTscNs0Ae0WO0bN3KEBNDBpgPDvMKCXOCWaAExkMhEe0QIaaE8DhP8SSdnxPmgC2it6jJo5QwNogPDvOJiXPDWagDQzeVLSpyTdr7TtYOrw610DrhHXimum93MteX6E/5IJOcC+aALiDMlG9u5DfZyRdKOkX2NumDsaOKIB14RrwzXi4ZqhCYjzHML/UEQ85CVAExBWkJvhvzkTV0q6WdLDhMCRECj5jIhth2l3KV6uAdeCa2J70ASEzxnhv60ifs5KgCZgXlHuC//NyXi2pE9KepRGgEZgMA1Y89a+a+CkQRMwz2/csBH+JymJv2UjQBNwclHOCf/NyTh/8Azoc5L+MlgILPUsk/2crNcl+Vjj1ro1P3fQBJw+f4T/XDWxXBYCNAG7izI0/Dcn4yWSvsJ7n7wa0GEj6Lqwtq3xmEETsNtveOYfoybWyUKAJuBoUaaE/+aEvEzSnZIe7zAIlny2yb6O6nMNHtawtWxNpw6agOPzyTP/VFWxfhIBmoB/F2Wu8N+cjOcffiXqERoBXhVoTAPWrL/OZw3nHDQBzzQBhH9OZbGtaAKjNwElwn9zMs5K+qCkXzQWAms842SfzwTEGiysUWvVmi01aAL4wF8pbbHdSAKjNgGlw397Ot4q6R4aAV4RqEwD1qS1udQYuQngmf9SKmM/QQRGawKWDv/NybhO0rf4wCCNwIqNgPVvDVqLa4wRmwDCfw2lsc/ZBEZpAtYM/83JuPrg6mm3S3poxSBY46Vm9rneS/3WmjVn7a09RmoCCP+11cb+ZxHovQmoJfw3J8OXUH2LpG9LeoJmgFcGMmvAmrK2rLHpcr2b+lvz/yM0AYT/mgpj38EEem0Cagz/7cnxRVZ8edX7MocAz7rXe9a9FntryFoKuXDPth6X+LnnJoDwX0JB7CM7gd6agBbCf3sSXy3pDkm/pxngVYGZGrBWrBlrp6XRYxNA+LekQI71GIFemoAWw39zMq6Q9K6DD2x97+D72X+fGQRrPetkv8u/0mBNWBvWiLXS6uipCSD8W1Uhx32EQOtNQOvhf2QyJD1X0g2SLnIjoqFfFfANeawBa8Ga6GX00AQQ/r2okfO4TKDVJqC38N+Wo5/tvfnwTmIP8spA9w2B59i16Dlv+Zn+to63f265CSD8t2eTn7sg0FoT0Hv47xLVayTdKumnkp6iIWi+IfAcei49p57bkUaLTQDhP5JCBzzXVpqAEcN/W47+nveHaAKabQI8dzV8V39bV0v+3FITQPgvqQz2tRqB2psAwv+oNPhQ3vIfysvB/OgsjvtTC00A4T+uPoc881qbAML/uBxzhBHbWL6JOD6T4/6m5iaA8B9Xl0OfeW1NAOG/W46E9/LhnYP57tkc97c1NgGE/7h65MwPP5Gcw+xSt0H475djKlvWX6eB2D+j4/6lpiaA8B9Xh5z5BoG1Xwkg/DcmY8d/CfB1AjyV+46p5FeSamgCCH+kCIENAms1AYT/xiTs+W9qELH+Og3Enunk1ys3AYQ/EoTADgJLNwGE/45J2PErAnydAE/lvmMq+dUGgTVeCSD8NyaA/0Jgm8BSTQDhv01+/8+pQcT66zQQ+2eUv0wElmwCCP+JOo8QOIFA6SaA8D8B/o4/EeDrBHgq9x1Tya92EFiiCSD8d4DnVxDYR6BUE0D47yO+//epQcT66zQQ+2eUv2wTKNkEEP7btPkZAjMI3J75evSXJL19xn5Z5CgBAnydAE/lfnQW+ek0AvYGe0Qq92l934fBHsaAAAQiCVwv6fEMRfmApFdFHsPoq02GxmO+cFiC5ei6jTl/e4S9InV+7Fn2LgYEIJBI4BpJd0cW5ROSvnBwwaHziccw8uqpZsj66YESw3Bkzaacu73ii5L+Fuk59ip7FgMCEMhI4HUHtzT97sxXBB6W9D/cDS0L/ZjwYZ11Qn+Te5bJH3gjL5X0VUm/m9EI+Bm/vckexYAABAoSOCfpHYf3OL9T0nck3XX4TP+/Jf3nwXtvZwruf7RNb4YK/18/2OfOwWg6LXW+9pILB088Pn7oMRcPPcfec+uhF9mTGBCAAAS6IzA3cFiuruagOyFyQhCAAAQgsCwBgr2uYJ87H8uqhL1BAAIQgEB3BOYGDsvV1Sh0J0ROCAIQgAAEliVAsNcV7HPnY1mVsDcIQAACEOiOwNzAYbm6GoXuhMgJQQACEIDAsgQI9rqCfe58LKsS9gYBCEAAAt0RmBs4LFdXo9CdEDkhCEAAAhBYlgDBXlewz52PZVXC3iAAAQhAoDsCcwOH5epqFLoTIicEAQhAAALLEiDY6wr2ufOxrErYGwQgAAEIdEdgbuCwXF2NQndC5IQgAAEIQGBZAgR7XcE+dz6WVQl7gwAEIACB7gjMDRyWq6tR6E6InBAEIAABCCxLgGCvK9jnzseyKmFvEIAABCDQHYG5gcNydTUK3QmRE4IABCAAgWUJEOx1Bfvc+VhWJewNAhCAAAS6IzA3cFiurkahOyFyQhCAAAQgsCwBgr2uYJ87H8uqhL1BAAIQgEB3BOYGDsvV1Sh0J0ROCAIQgAAEliVAsNcV7HPnY1mVsDcIQAACEOiOwNzAYbm6GoXuhMgJQQACEIDAsgQI9rqCfe58LKsS9gYBCEAAAt0RmBs4LFdXo9CdEDkhCEAAAhBYlgDBXlewz52PZVXC3iAAAQhAoDsCcwOH5epqFLoTIicEAQhAAALLEiDY6wr2ufOxrErYGwQgAAEIdEdgbuCwXF2NQndC5IQgAAEIQGBZAo+prmCj0Th9PjxnDAhAAAIQgEASgV/RAKi1psNzxoAABCAAAQgkEfghDUBzDYDnjAEBCEAAAhBIInAHDUBzDYDnjAEBCEAAAhBIIvAGGoDmGgDPGQMCEIAABCCQROBZkv5AE9BME+C58pwxIAABCEAAAskEPkED0EwD4LliQAACEIAABLIQuErSb2kCqm8CPEeeKwYEIAABCEAgG4H3SnqKJqDaJsBz4zliQAACEIAABLITuI0GoNoGwHPDgAAEIAABCBQhcEbSRZqA6poAz4nnhgEBCEAAAhAoRsBB42ebvB1w+iV5S19B0HPguSD8i8mdDUMAAhCAwDYBv9/MBwPXawLMnvf8t1XJzxCAAAQgsAgBf+LcXzvjOgHLNQJmbeZ82n8RibMTCEAAAhA4iYAvPOOrz/kStL4OvW9Gw10E05sCMzRLMzVbM+YiPycpkb9BYCaB/w9cvxYXNaF5ZQAAAABJRU5ErkJggg==;" vertex="1" parent="GTaBL3b2TxJOTED7LHsO-2">
          <mxGeometry x="600" y="172" width="16" height="16" as="geometry" />
        </mxCell>
      </root>
    </mxGraphModel>
  </diagram>
</mxfile>
